G04 #@! TF.GenerationSoftware,KiCad,Pcbnew,5.1.4-5.1.4*
G04 #@! TF.CreationDate,2019-09-03T08:09:01+02:00*
G04 #@! TF.ProjectId,nixieclock-in18,6e697869-6563-46c6-9f63-6b2d696e3138,rev?*
G04 #@! TF.SameCoordinates,Original*
G04 #@! TF.FileFunction,Legend,Top*
G04 #@! TF.FilePolarity,Positive*
%FSLAX46Y46*%
G04 Gerber Fmt 4.6, Leading zero omitted, Abs format (unit mm)*
G04 Created by KiCad (PCBNEW 5.1.4-5.1.4) date 2019-09-03 08:09:01*
%MOMM*%
%LPD*%
G04 APERTURE LIST*
%ADD10C,0.350000*%
%ADD11C,0.150000*%
%ADD12C,0.120000*%
G04 APERTURE END LIST*
D10*
X228107813Y-78740000D02*
G75*
G03X228107813Y-78740000I-2047813J0D01*
G01*
D11*
X241046000Y-78740000D02*
G75*
G03X241046000Y-78740000I-14986000J0D01*
G01*
X208026000Y-78740000D02*
G75*
G03X208026000Y-78740000I-14986000J0D01*
G01*
D10*
X195087813Y-78740000D02*
G75*
G03X195087813Y-78740000I-2047813J0D01*
G01*
D11*
X122936000Y-78740000D02*
G75*
G03X122936000Y-78740000I-14986000J0D01*
G01*
D10*
X109997813Y-78740000D02*
G75*
G03X109997813Y-78740000I-2047813J0D01*
G01*
X143017813Y-78740000D02*
G75*
G03X143017813Y-78740000I-2047813J0D01*
G01*
D11*
X155956000Y-78740000D02*
G75*
G03X155956000Y-78740000I-14986000J0D01*
G01*
D12*
X181270000Y-60500000D02*
X175570000Y-60500000D01*
X181270000Y-60500000D02*
X181270000Y-66500000D01*
X181270000Y-66500000D02*
X175570000Y-66500000D01*
X174818246Y-67026384D02*
G75*
G02X175570000Y-66500000I751754J-273616D01*
G01*
X152374329Y-63454719D02*
G75*
G03X174820000Y-67000000I11495671J-45281D01*
G01*
X174818246Y-59973616D02*
G75*
G03X175570000Y-60500000I751754J273616D01*
G01*
X152374329Y-63545281D02*
G75*
G02X174820000Y-60000000I11495671J45281D01*
G01*
X219030000Y-57670000D02*
X219030000Y-59170000D01*
X218280000Y-58420000D02*
X219780000Y-58420000D01*
X228561000Y-58141000D02*
X228561000Y-58699000D01*
X228521000Y-57748000D02*
X228521000Y-59092000D01*
X228481000Y-57507000D02*
X228481000Y-59333000D01*
X228441000Y-57316000D02*
X228441000Y-59524000D01*
X228401000Y-57155000D02*
X228401000Y-59685000D01*
X228361000Y-57013000D02*
X228361000Y-59827000D01*
X228321000Y-56884000D02*
X228321000Y-59956000D01*
X228281000Y-56766000D02*
X228281000Y-60074000D01*
X228241000Y-56657000D02*
X228241000Y-60183000D01*
X228201000Y-56554000D02*
X228201000Y-60286000D01*
X228161000Y-56458000D02*
X228161000Y-60382000D01*
X228121000Y-56367000D02*
X228121000Y-60473000D01*
X228081000Y-56280000D02*
X228081000Y-60560000D01*
X228041000Y-56198000D02*
X228041000Y-60642000D01*
X228001000Y-56119000D02*
X228001000Y-60721000D01*
X227961000Y-56043000D02*
X227961000Y-60797000D01*
X227921000Y-55971000D02*
X227921000Y-60869000D01*
X227881000Y-55901000D02*
X227881000Y-60939000D01*
X227841000Y-55833000D02*
X227841000Y-61007000D01*
X227801000Y-55768000D02*
X227801000Y-61072000D01*
X227761000Y-55705000D02*
X227761000Y-61135000D01*
X227721000Y-55643000D02*
X227721000Y-61197000D01*
X227681000Y-55584000D02*
X227681000Y-61256000D01*
X227641000Y-55526000D02*
X227641000Y-61314000D01*
X227601000Y-55471000D02*
X227601000Y-61369000D01*
X227561000Y-55416000D02*
X227561000Y-61424000D01*
X227521000Y-55363000D02*
X227521000Y-61477000D01*
X227481000Y-55312000D02*
X227481000Y-61528000D01*
X227441000Y-55262000D02*
X227441000Y-61578000D01*
X227401000Y-55213000D02*
X227401000Y-61627000D01*
X227361000Y-55165000D02*
X227361000Y-61675000D01*
X227321000Y-55118000D02*
X227321000Y-61722000D01*
X227281000Y-55073000D02*
X227281000Y-61767000D01*
X227241000Y-55029000D02*
X227241000Y-61811000D01*
X227201000Y-54985000D02*
X227201000Y-61855000D01*
X227161000Y-54943000D02*
X227161000Y-61897000D01*
X227121000Y-59601000D02*
X227121000Y-61938000D01*
X227121000Y-54902000D02*
X227121000Y-57239000D01*
X227081000Y-59601000D02*
X227081000Y-61979000D01*
X227081000Y-54861000D02*
X227081000Y-57239000D01*
X227041000Y-59601000D02*
X227041000Y-62018000D01*
X227041000Y-54822000D02*
X227041000Y-57239000D01*
X227001000Y-59601000D02*
X227001000Y-62057000D01*
X227001000Y-54783000D02*
X227001000Y-57239000D01*
X226961000Y-59601000D02*
X226961000Y-62095000D01*
X226961000Y-54745000D02*
X226961000Y-57239000D01*
X226921000Y-59601000D02*
X226921000Y-62132000D01*
X226921000Y-54708000D02*
X226921000Y-57239000D01*
X226881000Y-59601000D02*
X226881000Y-62168000D01*
X226881000Y-54672000D02*
X226881000Y-57239000D01*
X226841000Y-59601000D02*
X226841000Y-62204000D01*
X226841000Y-54636000D02*
X226841000Y-57239000D01*
X226801000Y-59601000D02*
X226801000Y-62239000D01*
X226801000Y-54601000D02*
X226801000Y-57239000D01*
X226761000Y-59601000D02*
X226761000Y-62273000D01*
X226761000Y-54567000D02*
X226761000Y-57239000D01*
X226721000Y-59601000D02*
X226721000Y-62306000D01*
X226721000Y-54534000D02*
X226721000Y-57239000D01*
X226681000Y-59601000D02*
X226681000Y-62339000D01*
X226681000Y-54501000D02*
X226681000Y-57239000D01*
X226641000Y-59601000D02*
X226641000Y-62371000D01*
X226641000Y-54469000D02*
X226641000Y-57239000D01*
X226601000Y-59601000D02*
X226601000Y-62402000D01*
X226601000Y-54438000D02*
X226601000Y-57239000D01*
X226561000Y-59601000D02*
X226561000Y-62433000D01*
X226561000Y-54407000D02*
X226561000Y-57239000D01*
X226521000Y-59601000D02*
X226521000Y-62463000D01*
X226521000Y-54377000D02*
X226521000Y-57239000D01*
X226481000Y-59601000D02*
X226481000Y-62492000D01*
X226481000Y-54348000D02*
X226481000Y-57239000D01*
X226441000Y-59601000D02*
X226441000Y-62521000D01*
X226441000Y-54319000D02*
X226441000Y-57239000D01*
X226401000Y-59601000D02*
X226401000Y-62550000D01*
X226401000Y-54290000D02*
X226401000Y-57239000D01*
X226361000Y-59601000D02*
X226361000Y-62577000D01*
X226361000Y-54263000D02*
X226361000Y-57239000D01*
X226321000Y-59601000D02*
X226321000Y-62605000D01*
X226321000Y-54235000D02*
X226321000Y-57239000D01*
X226281000Y-59601000D02*
X226281000Y-62631000D01*
X226281000Y-54209000D02*
X226281000Y-57239000D01*
X226241000Y-59601000D02*
X226241000Y-62657000D01*
X226241000Y-54183000D02*
X226241000Y-57239000D01*
X226201000Y-59601000D02*
X226201000Y-62683000D01*
X226201000Y-54157000D02*
X226201000Y-57239000D01*
X226161000Y-59601000D02*
X226161000Y-62708000D01*
X226161000Y-54132000D02*
X226161000Y-57239000D01*
X226121000Y-59601000D02*
X226121000Y-62732000D01*
X226121000Y-54108000D02*
X226121000Y-57239000D01*
X226081000Y-59601000D02*
X226081000Y-62756000D01*
X226081000Y-54084000D02*
X226081000Y-57239000D01*
X226041000Y-59601000D02*
X226041000Y-62780000D01*
X226041000Y-54060000D02*
X226041000Y-57239000D01*
X226001000Y-59601000D02*
X226001000Y-62803000D01*
X226001000Y-54037000D02*
X226001000Y-57239000D01*
X225961000Y-59601000D02*
X225961000Y-62825000D01*
X225961000Y-54015000D02*
X225961000Y-57239000D01*
X225921000Y-59601000D02*
X225921000Y-62848000D01*
X225921000Y-53992000D02*
X225921000Y-57239000D01*
X225881000Y-59601000D02*
X225881000Y-62869000D01*
X225881000Y-53971000D02*
X225881000Y-57239000D01*
X225841000Y-59601000D02*
X225841000Y-62890000D01*
X225841000Y-53950000D02*
X225841000Y-57239000D01*
X225801000Y-59601000D02*
X225801000Y-62911000D01*
X225801000Y-53929000D02*
X225801000Y-57239000D01*
X225761000Y-59601000D02*
X225761000Y-62931000D01*
X225761000Y-53909000D02*
X225761000Y-57239000D01*
X225721000Y-59601000D02*
X225721000Y-62951000D01*
X225721000Y-53889000D02*
X225721000Y-57239000D01*
X225681000Y-59601000D02*
X225681000Y-62970000D01*
X225681000Y-53870000D02*
X225681000Y-57239000D01*
X225641000Y-59601000D02*
X225641000Y-62989000D01*
X225641000Y-53851000D02*
X225641000Y-57239000D01*
X225601000Y-59601000D02*
X225601000Y-63008000D01*
X225601000Y-53832000D02*
X225601000Y-57239000D01*
X225561000Y-59601000D02*
X225561000Y-63026000D01*
X225561000Y-53814000D02*
X225561000Y-57239000D01*
X225521000Y-59601000D02*
X225521000Y-63044000D01*
X225521000Y-53796000D02*
X225521000Y-57239000D01*
X225481000Y-59601000D02*
X225481000Y-63061000D01*
X225481000Y-53779000D02*
X225481000Y-57239000D01*
X225441000Y-59601000D02*
X225441000Y-63078000D01*
X225441000Y-53762000D02*
X225441000Y-57239000D01*
X225401000Y-59601000D02*
X225401000Y-63094000D01*
X225401000Y-53746000D02*
X225401000Y-57239000D01*
X225361000Y-59601000D02*
X225361000Y-63111000D01*
X225361000Y-53729000D02*
X225361000Y-57239000D01*
X225321000Y-59601000D02*
X225321000Y-63126000D01*
X225321000Y-53714000D02*
X225321000Y-57239000D01*
X225281000Y-59601000D02*
X225281000Y-63142000D01*
X225281000Y-53698000D02*
X225281000Y-57239000D01*
X225241000Y-59601000D02*
X225241000Y-63157000D01*
X225241000Y-53683000D02*
X225241000Y-57239000D01*
X225201000Y-59601000D02*
X225201000Y-63171000D01*
X225201000Y-53669000D02*
X225201000Y-57239000D01*
X225161000Y-59601000D02*
X225161000Y-63185000D01*
X225161000Y-53655000D02*
X225161000Y-57239000D01*
X225121000Y-59601000D02*
X225121000Y-63199000D01*
X225121000Y-53641000D02*
X225121000Y-57239000D01*
X225081000Y-59601000D02*
X225081000Y-63212000D01*
X225081000Y-53628000D02*
X225081000Y-57239000D01*
X225041000Y-59601000D02*
X225041000Y-63226000D01*
X225041000Y-53614000D02*
X225041000Y-57239000D01*
X225001000Y-59601000D02*
X225001000Y-63238000D01*
X225001000Y-53602000D02*
X225001000Y-57239000D01*
X224961000Y-59601000D02*
X224961000Y-63251000D01*
X224961000Y-53589000D02*
X224961000Y-57239000D01*
X224921000Y-59601000D02*
X224921000Y-63263000D01*
X224921000Y-53577000D02*
X224921000Y-57239000D01*
X224881000Y-59601000D02*
X224881000Y-63274000D01*
X224881000Y-53566000D02*
X224881000Y-57239000D01*
X224841000Y-59601000D02*
X224841000Y-63285000D01*
X224841000Y-53555000D02*
X224841000Y-57239000D01*
X224801000Y-59601000D02*
X224801000Y-63296000D01*
X224801000Y-53544000D02*
X224801000Y-57239000D01*
X224761000Y-53533000D02*
X224761000Y-63307000D01*
X224721000Y-53523000D02*
X224721000Y-63317000D01*
X224681000Y-53513000D02*
X224681000Y-63327000D01*
X224641000Y-53503000D02*
X224641000Y-63337000D01*
X224601000Y-53494000D02*
X224601000Y-63346000D01*
X224561000Y-53485000D02*
X224561000Y-63355000D01*
X224521000Y-53477000D02*
X224521000Y-63363000D01*
X224481000Y-53469000D02*
X224481000Y-63371000D01*
X224441000Y-53461000D02*
X224441000Y-63379000D01*
X224401000Y-53453000D02*
X224401000Y-63387000D01*
X224361000Y-53446000D02*
X224361000Y-63394000D01*
X224321000Y-53439000D02*
X224321000Y-63401000D01*
X224281000Y-53433000D02*
X224281000Y-63407000D01*
X224241000Y-53427000D02*
X224241000Y-63413000D01*
X224201000Y-53421000D02*
X224201000Y-63419000D01*
X224160000Y-53415000D02*
X224160000Y-63425000D01*
X224120000Y-53410000D02*
X224120000Y-63430000D01*
X224080000Y-53405000D02*
X224080000Y-63435000D01*
X224040000Y-53400000D02*
X224040000Y-63440000D01*
X224000000Y-53396000D02*
X224000000Y-63444000D01*
X223960000Y-53392000D02*
X223960000Y-63448000D01*
X223920000Y-53389000D02*
X223920000Y-63451000D01*
X223880000Y-53385000D02*
X223880000Y-63455000D01*
X223840000Y-53382000D02*
X223840000Y-63458000D01*
X223800000Y-53380000D02*
X223800000Y-63460000D01*
X223760000Y-53377000D02*
X223760000Y-63463000D01*
X223720000Y-53375000D02*
X223720000Y-63465000D01*
X223680000Y-53373000D02*
X223680000Y-63467000D01*
X223640000Y-53372000D02*
X223640000Y-63468000D01*
X223600000Y-53371000D02*
X223600000Y-63469000D01*
X223560000Y-53370000D02*
X223560000Y-63470000D01*
X223520000Y-53370000D02*
X223520000Y-63470000D01*
X223480000Y-53370000D02*
X223480000Y-63470000D01*
X228378437Y-59803264D02*
G75*
G03X228379357Y-57040000I-4898437J1383264D01*
G01*
X228378437Y-59803264D02*
G75*
G02X218580643Y-59800000I-4898437J1383264D01*
G01*
X228378437Y-57036736D02*
G75*
G03X218580643Y-57040000I-4898437J-1383264D01*
G01*
X180050000Y-96330000D02*
X180050000Y-96486000D01*
X180050000Y-94014000D02*
X180050000Y-94170000D01*
X182651130Y-96329837D02*
G75*
G02X180569039Y-96330000I-1041130J1079837D01*
G01*
X182651130Y-94170163D02*
G75*
G03X180569039Y-94170000I-1041130J-1079837D01*
G01*
X183282335Y-96328608D02*
G75*
G02X180050000Y-96485516I-1672335J1078608D01*
G01*
X183282335Y-94171392D02*
G75*
G03X180050000Y-94014484I-1672335J-1078608D01*
G01*
X201210000Y-56020000D02*
X201210000Y-53200000D01*
X195390000Y-54610000D02*
X196730000Y-54610000D01*
X203390000Y-54610000D02*
X202050000Y-54610000D01*
X196730000Y-56020000D02*
X202050000Y-56020000D01*
X196730000Y-53200000D02*
X196730000Y-56020000D01*
X202050000Y-53200000D02*
X196730000Y-53200000D01*
X202050000Y-56020000D02*
X202050000Y-53200000D01*
X238900000Y-68030000D02*
X236080000Y-68030000D01*
X236080000Y-72510000D02*
X236210000Y-72510000D01*
X236080000Y-67190000D02*
X236080000Y-72510000D01*
X236210000Y-67190000D02*
X236080000Y-67190000D01*
X238900000Y-72510000D02*
X238770000Y-72510000D01*
X238900000Y-67190000D02*
X238900000Y-72510000D01*
X238770000Y-67190000D02*
X238900000Y-67190000D01*
X105290000Y-90160000D02*
X105290000Y-90030000D01*
X105290000Y-90030000D02*
X110610000Y-90030000D01*
X110610000Y-90030000D02*
X110610000Y-90160000D01*
X105290000Y-92720000D02*
X105290000Y-92850000D01*
X105290000Y-92850000D02*
X110610000Y-92850000D01*
X110610000Y-92850000D02*
X110610000Y-92720000D01*
X106130000Y-90030000D02*
X106130000Y-92850000D01*
X139150000Y-90030000D02*
X139150000Y-92850000D01*
X143630000Y-92850000D02*
X143630000Y-92720000D01*
X138310000Y-92850000D02*
X143630000Y-92850000D01*
X138310000Y-92720000D02*
X138310000Y-92850000D01*
X143630000Y-90030000D02*
X143630000Y-90160000D01*
X138310000Y-90030000D02*
X143630000Y-90030000D01*
X138310000Y-90160000D02*
X138310000Y-90030000D01*
X190380000Y-90160000D02*
X190380000Y-90030000D01*
X190380000Y-90030000D02*
X195700000Y-90030000D01*
X195700000Y-90030000D02*
X195700000Y-90160000D01*
X190380000Y-92720000D02*
X190380000Y-92850000D01*
X190380000Y-92850000D02*
X195700000Y-92850000D01*
X195700000Y-92850000D02*
X195700000Y-92720000D01*
X191220000Y-90030000D02*
X191220000Y-92850000D01*
X224240000Y-90030000D02*
X224240000Y-92850000D01*
X228720000Y-92850000D02*
X228720000Y-92720000D01*
X223400000Y-92850000D02*
X228720000Y-92850000D01*
X223400000Y-92720000D02*
X223400000Y-92850000D01*
X228720000Y-90030000D02*
X228720000Y-90160000D01*
X223400000Y-90030000D02*
X228720000Y-90030000D01*
X223400000Y-90160000D02*
X223400000Y-90030000D01*
X102870000Y-59690000D02*
X113030000Y-59690000D01*
X102870000Y-52070000D02*
X102870000Y-59690000D01*
X113030000Y-52070000D02*
X102870000Y-52070000D01*
X113030000Y-59690000D02*
X113030000Y-52070000D01*
X113030000Y-58420000D02*
X102870000Y-58420000D01*
X216100000Y-62230000D02*
G75*
G03X216100000Y-62230000I-6090000J0D01*
G01*
X222850000Y-64730000D02*
X222850000Y-67350000D01*
X222850000Y-67350000D02*
X229270000Y-67350000D01*
X229270000Y-67350000D02*
X229270000Y-64730000D01*
X229270000Y-64730000D02*
X222850000Y-64730000D01*
X221960000Y-66040000D02*
X222850000Y-66040000D01*
X230160000Y-66040000D02*
X229270000Y-66040000D01*
X209260000Y-53340000D02*
X210150000Y-53340000D01*
X217460000Y-53340000D02*
X216570000Y-53340000D01*
X210150000Y-54650000D02*
X216570000Y-54650000D01*
X210150000Y-52030000D02*
X210150000Y-54650000D01*
X216570000Y-52030000D02*
X210150000Y-52030000D01*
X216570000Y-54650000D02*
X216570000Y-52030000D01*
X235580000Y-61758000D02*
X235580000Y-64210000D01*
X235580000Y-57790000D02*
X235580000Y-60243000D01*
X229160000Y-59258000D02*
X229160000Y-62743000D01*
X230743000Y-64210000D02*
X235580000Y-64210000D01*
X230743000Y-57790000D02*
X235580000Y-57790000D01*
X233270000Y-61000000D02*
G75*
G03X233270000Y-61000000I-900000J0D01*
G01*
X135830000Y-96580000D02*
X135830000Y-95250000D01*
X137160000Y-96580000D02*
X135830000Y-96580000D01*
X138430000Y-96580000D02*
X138430000Y-93920000D01*
X138430000Y-93920000D02*
X151190000Y-93920000D01*
X138430000Y-96580000D02*
X151190000Y-96580000D01*
X151190000Y-96580000D02*
X151190000Y-93920000D01*
D11*
X217678095Y-62952380D02*
X218249523Y-62952380D01*
X217963809Y-63952380D02*
X217963809Y-62952380D01*
X219011428Y-63285714D02*
X219011428Y-63952380D01*
X218773333Y-62904761D02*
X218535238Y-63619047D01*
X219154285Y-63619047D01*
X192532095Y-62190380D02*
X193103523Y-62190380D01*
X192817809Y-63190380D02*
X192817809Y-62190380D01*
X193341619Y-62190380D02*
X193960666Y-62190380D01*
X193627333Y-62571333D01*
X193770190Y-62571333D01*
X193865428Y-62618952D01*
X193913047Y-62666571D01*
X193960666Y-62761809D01*
X193960666Y-62999904D01*
X193913047Y-63095142D01*
X193865428Y-63142761D01*
X193770190Y-63190380D01*
X193484476Y-63190380D01*
X193389238Y-63142761D01*
X193341619Y-63095142D01*
X107442095Y-62190380D02*
X108013523Y-62190380D01*
X107727809Y-63190380D02*
X107727809Y-62190380D01*
X108870666Y-63190380D02*
X108299238Y-63190380D01*
X108584952Y-63190380D02*
X108584952Y-62190380D01*
X108489714Y-62333238D01*
X108394476Y-62428476D01*
X108299238Y-62476095D01*
X140462095Y-62190380D02*
X141033523Y-62190380D01*
X140747809Y-63190380D02*
X140747809Y-62190380D01*
X141319238Y-62285619D02*
X141366857Y-62238000D01*
X141462095Y-62190380D01*
X141700190Y-62190380D01*
X141795428Y-62238000D01*
X141843047Y-62285619D01*
X141890666Y-62380857D01*
X141890666Y-62476095D01*
X141843047Y-62618952D01*
X141271619Y-63190380D01*
X141890666Y-63190380D01*
X178284285Y-67728571D02*
X178427142Y-67776190D01*
X178474761Y-67823809D01*
X178522380Y-67919047D01*
X178522380Y-68061904D01*
X178474761Y-68157142D01*
X178427142Y-68204761D01*
X178331904Y-68252380D01*
X177950952Y-68252380D01*
X177950952Y-67252380D01*
X178284285Y-67252380D01*
X178379523Y-67300000D01*
X178427142Y-67347619D01*
X178474761Y-67442857D01*
X178474761Y-67538095D01*
X178427142Y-67633333D01*
X178379523Y-67680952D01*
X178284285Y-67728571D01*
X177950952Y-67728571D01*
X178808095Y-67252380D02*
X179379523Y-67252380D01*
X179093809Y-68252380D02*
X179093809Y-67252380D01*
X180236666Y-68252380D02*
X179665238Y-68252380D01*
X179950952Y-68252380D02*
X179950952Y-67252380D01*
X179855714Y-67395238D01*
X179760476Y-67490476D01*
X179665238Y-67538095D01*
X175748571Y-63607142D02*
X176891428Y-63607142D01*
X176320000Y-64178571D02*
X176320000Y-63035714D01*
X223313333Y-52467142D02*
X223265714Y-52514761D01*
X223122857Y-52562380D01*
X223027619Y-52562380D01*
X222884761Y-52514761D01*
X222789523Y-52419523D01*
X222741904Y-52324285D01*
X222694285Y-52133809D01*
X222694285Y-51990952D01*
X222741904Y-51800476D01*
X222789523Y-51705238D01*
X222884761Y-51610000D01*
X223027619Y-51562380D01*
X223122857Y-51562380D01*
X223265714Y-51610000D01*
X223313333Y-51657619D01*
X223646666Y-51562380D02*
X224313333Y-51562380D01*
X223884761Y-52562380D01*
X180871904Y-92742380D02*
X180871904Y-91742380D01*
X181110000Y-91742380D01*
X181252857Y-91790000D01*
X181348095Y-91885238D01*
X181395714Y-91980476D01*
X181443333Y-92170952D01*
X181443333Y-92313809D01*
X181395714Y-92504285D01*
X181348095Y-92599523D01*
X181252857Y-92694761D01*
X181110000Y-92742380D01*
X180871904Y-92742380D01*
X182395714Y-92742380D02*
X181824285Y-92742380D01*
X182110000Y-92742380D02*
X182110000Y-91742380D01*
X182014761Y-91885238D01*
X181919523Y-91980476D01*
X181824285Y-92028095D01*
X198651904Y-57472380D02*
X198651904Y-56472380D01*
X198890000Y-56472380D01*
X199032857Y-56520000D01*
X199128095Y-56615238D01*
X199175714Y-56710476D01*
X199223333Y-56900952D01*
X199223333Y-57043809D01*
X199175714Y-57234285D01*
X199128095Y-57329523D01*
X199032857Y-57424761D01*
X198890000Y-57472380D01*
X198651904Y-57472380D01*
X199604285Y-56567619D02*
X199651904Y-56520000D01*
X199747142Y-56472380D01*
X199985238Y-56472380D01*
X200080476Y-56520000D01*
X200128095Y-56567619D01*
X200175714Y-56662857D01*
X200175714Y-56758095D01*
X200128095Y-56900952D01*
X199556666Y-57472380D01*
X200175714Y-57472380D01*
X239291904Y-70302380D02*
X239291904Y-69302380D01*
X239530000Y-69302380D01*
X239672857Y-69350000D01*
X239768095Y-69445238D01*
X239815714Y-69540476D01*
X239863333Y-69730952D01*
X239863333Y-69873809D01*
X239815714Y-70064285D01*
X239768095Y-70159523D01*
X239672857Y-70254761D01*
X239530000Y-70302380D01*
X239291904Y-70302380D01*
X240196666Y-69302380D02*
X240815714Y-69302380D01*
X240482380Y-69683333D01*
X240625238Y-69683333D01*
X240720476Y-69730952D01*
X240768095Y-69778571D01*
X240815714Y-69873809D01*
X240815714Y-70111904D01*
X240768095Y-70207142D01*
X240720476Y-70254761D01*
X240625238Y-70302380D01*
X240339523Y-70302380D01*
X240244285Y-70254761D01*
X240196666Y-70207142D01*
X107211904Y-95702380D02*
X107211904Y-94702380D01*
X107450000Y-94702380D01*
X107592857Y-94750000D01*
X107688095Y-94845238D01*
X107735714Y-94940476D01*
X107783333Y-95130952D01*
X107783333Y-95273809D01*
X107735714Y-95464285D01*
X107688095Y-95559523D01*
X107592857Y-95654761D01*
X107450000Y-95702380D01*
X107211904Y-95702380D01*
X108640476Y-95035714D02*
X108640476Y-95702380D01*
X108402380Y-94654761D02*
X108164285Y-95369047D01*
X108783333Y-95369047D01*
X133881904Y-91892380D02*
X133881904Y-90892380D01*
X134120000Y-90892380D01*
X134262857Y-90940000D01*
X134358095Y-91035238D01*
X134405714Y-91130476D01*
X134453333Y-91320952D01*
X134453333Y-91463809D01*
X134405714Y-91654285D01*
X134358095Y-91749523D01*
X134262857Y-91844761D01*
X134120000Y-91892380D01*
X133881904Y-91892380D01*
X135358095Y-90892380D02*
X134881904Y-90892380D01*
X134834285Y-91368571D01*
X134881904Y-91320952D01*
X134977142Y-91273333D01*
X135215238Y-91273333D01*
X135310476Y-91320952D01*
X135358095Y-91368571D01*
X135405714Y-91463809D01*
X135405714Y-91701904D01*
X135358095Y-91797142D01*
X135310476Y-91844761D01*
X135215238Y-91892380D01*
X134977142Y-91892380D01*
X134881904Y-91844761D01*
X134834285Y-91797142D01*
X192301904Y-95702380D02*
X192301904Y-94702380D01*
X192540000Y-94702380D01*
X192682857Y-94750000D01*
X192778095Y-94845238D01*
X192825714Y-94940476D01*
X192873333Y-95130952D01*
X192873333Y-95273809D01*
X192825714Y-95464285D01*
X192778095Y-95559523D01*
X192682857Y-95654761D01*
X192540000Y-95702380D01*
X192301904Y-95702380D01*
X193730476Y-94702380D02*
X193540000Y-94702380D01*
X193444761Y-94750000D01*
X193397142Y-94797619D01*
X193301904Y-94940476D01*
X193254285Y-95130952D01*
X193254285Y-95511904D01*
X193301904Y-95607142D01*
X193349523Y-95654761D01*
X193444761Y-95702380D01*
X193635238Y-95702380D01*
X193730476Y-95654761D01*
X193778095Y-95607142D01*
X193825714Y-95511904D01*
X193825714Y-95273809D01*
X193778095Y-95178571D01*
X193730476Y-95130952D01*
X193635238Y-95083333D01*
X193444761Y-95083333D01*
X193349523Y-95130952D01*
X193301904Y-95178571D01*
X193254285Y-95273809D01*
X225321904Y-95702380D02*
X225321904Y-94702380D01*
X225560000Y-94702380D01*
X225702857Y-94750000D01*
X225798095Y-94845238D01*
X225845714Y-94940476D01*
X225893333Y-95130952D01*
X225893333Y-95273809D01*
X225845714Y-95464285D01*
X225798095Y-95559523D01*
X225702857Y-95654761D01*
X225560000Y-95702380D01*
X225321904Y-95702380D01*
X226226666Y-94702380D02*
X226893333Y-94702380D01*
X226464761Y-95702380D01*
X101266666Y-55332380D02*
X101266666Y-56046666D01*
X101219047Y-56189523D01*
X101123809Y-56284761D01*
X100980952Y-56332380D01*
X100885714Y-56332380D01*
X101695238Y-55427619D02*
X101742857Y-55380000D01*
X101838095Y-55332380D01*
X102076190Y-55332380D01*
X102171428Y-55380000D01*
X102219047Y-55427619D01*
X102266666Y-55522857D01*
X102266666Y-55618095D01*
X102219047Y-55760952D01*
X101647619Y-56332380D01*
X102266666Y-56332380D01*
X206843333Y-56332380D02*
X206367142Y-56332380D01*
X206367142Y-55332380D01*
X207700476Y-56332380D02*
X207129047Y-56332380D01*
X207414761Y-56332380D02*
X207414761Y-55332380D01*
X207319523Y-55475238D01*
X207224285Y-55570476D01*
X207129047Y-55618095D01*
X218273333Y-67762380D02*
X217940000Y-67286190D01*
X217701904Y-67762380D02*
X217701904Y-66762380D01*
X218082857Y-66762380D01*
X218178095Y-66810000D01*
X218225714Y-66857619D01*
X218273333Y-66952857D01*
X218273333Y-67095714D01*
X218225714Y-67190952D01*
X218178095Y-67238571D01*
X218082857Y-67286190D01*
X217701904Y-67286190D01*
X218606666Y-66762380D02*
X219273333Y-66762380D01*
X218844761Y-67762380D01*
X213193333Y-56102380D02*
X212860000Y-55626190D01*
X212621904Y-56102380D02*
X212621904Y-55102380D01*
X213002857Y-55102380D01*
X213098095Y-55150000D01*
X213145714Y-55197619D01*
X213193333Y-55292857D01*
X213193333Y-55435714D01*
X213145714Y-55530952D01*
X213098095Y-55578571D01*
X213002857Y-55626190D01*
X212621904Y-55626190D01*
X213764761Y-55530952D02*
X213669523Y-55483333D01*
X213621904Y-55435714D01*
X213574285Y-55340476D01*
X213574285Y-55292857D01*
X213621904Y-55197619D01*
X213669523Y-55150000D01*
X213764761Y-55102380D01*
X213955238Y-55102380D01*
X214050476Y-55150000D01*
X214098095Y-55197619D01*
X214145714Y-55292857D01*
X214145714Y-55340476D01*
X214098095Y-55435714D01*
X214050476Y-55483333D01*
X213955238Y-55530952D01*
X213764761Y-55530952D01*
X213669523Y-55578571D01*
X213621904Y-55626190D01*
X213574285Y-55721428D01*
X213574285Y-55911904D01*
X213621904Y-56007142D01*
X213669523Y-56054761D01*
X213764761Y-56102380D01*
X213955238Y-56102380D01*
X214050476Y-56054761D01*
X214098095Y-56007142D01*
X214145714Y-55911904D01*
X214145714Y-55721428D01*
X214098095Y-55626190D01*
X214050476Y-55578571D01*
X213955238Y-55530952D01*
X231774761Y-56892380D02*
X231441428Y-56416190D01*
X231203333Y-56892380D02*
X231203333Y-55892380D01*
X231584285Y-55892380D01*
X231679523Y-55940000D01*
X231727142Y-55987619D01*
X231774761Y-56082857D01*
X231774761Y-56225714D01*
X231727142Y-56320952D01*
X231679523Y-56368571D01*
X231584285Y-56416190D01*
X231203333Y-56416190D01*
X232060476Y-55892380D02*
X232393809Y-56892380D01*
X232727142Y-55892380D01*
X233584285Y-56892380D02*
X233012857Y-56892380D01*
X233298571Y-56892380D02*
X233298571Y-55892380D01*
X233203333Y-56035238D01*
X233108095Y-56130476D01*
X233012857Y-56178095D01*
X134496666Y-94702380D02*
X134496666Y-95416666D01*
X134449047Y-95559523D01*
X134353809Y-95654761D01*
X134210952Y-95702380D01*
X134115714Y-95702380D01*
X135496666Y-95702380D02*
X134925238Y-95702380D01*
X135210952Y-95702380D02*
X135210952Y-94702380D01*
X135115714Y-94845238D01*
X135020476Y-94940476D01*
X134925238Y-94988095D01*
M02*
