G04 #@! TF.GenerationSoftware,KiCad,Pcbnew,5.1.4-5.1.4*
G04 #@! TF.CreationDate,2019-09-03T08:09:01+02:00*
G04 #@! TF.ProjectId,nixieclock-in18,6e697869-6563-46c6-9f63-6b2d696e3138,rev?*
G04 #@! TF.SameCoordinates,Original*
G04 #@! TF.FileFunction,Legend,Bot*
G04 #@! TF.FilePolarity,Positive*
%FSLAX46Y46*%
G04 Gerber Fmt 4.6, Leading zero omitted, Abs format (unit mm)*
G04 Created by KiCad (PCBNEW 5.1.4-5.1.4) date 2019-09-03 08:09:01*
%MOMM*%
%LPD*%
G04 APERTURE LIST*
%ADD10C,0.120000*%
%ADD11C,0.150000*%
%ADD12C,0.500000*%
G04 APERTURE END LIST*
D10*
X115180000Y-56480000D02*
X115180000Y-55280000D01*
X113420000Y-55280000D02*
X113420000Y-56480000D01*
D11*
X163765000Y-66010000D02*
X162240000Y-66010000D01*
X163765000Y-55635000D02*
X171515000Y-55635000D01*
X163765000Y-66285000D02*
X171515000Y-66285000D01*
X163765000Y-55635000D02*
X163765000Y-55990000D01*
X171515000Y-55635000D02*
X171515000Y-55990000D01*
X171515000Y-66285000D02*
X171515000Y-65930000D01*
X163765000Y-66285000D02*
X163765000Y-66010000D01*
D10*
X120150000Y-52490000D02*
X121150000Y-52490000D01*
X121150000Y-54190000D02*
X120150000Y-54190000D01*
X155790000Y-63000000D02*
X155790000Y-64000000D01*
X154090000Y-64000000D02*
X154090000Y-63000000D01*
X120150000Y-57570000D02*
X121150000Y-57570000D01*
X121150000Y-59270000D02*
X120150000Y-59270000D01*
X149360000Y-90590000D02*
X150360000Y-90590000D01*
X150360000Y-92290000D02*
X149360000Y-92290000D01*
X187745000Y-62750000D02*
X187745000Y-61750000D01*
X189445000Y-61750000D02*
X189445000Y-62750000D01*
X154520000Y-89670000D02*
X154520000Y-90670000D01*
X152820000Y-90670000D02*
X152820000Y-89670000D01*
X154520000Y-84610000D02*
X154520000Y-85610000D01*
X152820000Y-85610000D02*
X152820000Y-84610000D01*
X204980000Y-70160000D02*
X204980000Y-69230000D01*
X204980000Y-67000000D02*
X204980000Y-67930000D01*
X204980000Y-67000000D02*
X208140000Y-67000000D01*
X204980000Y-70160000D02*
X206440000Y-70160000D01*
X212600000Y-70160000D02*
X212600000Y-69230000D01*
X212600000Y-67000000D02*
X212600000Y-67930000D01*
X212600000Y-67000000D02*
X215760000Y-67000000D01*
X212600000Y-70160000D02*
X214060000Y-70160000D01*
X132840000Y-67000000D02*
X131380000Y-67000000D01*
X132840000Y-70160000D02*
X129680000Y-70160000D01*
X132840000Y-70160000D02*
X132840000Y-69230000D01*
X132840000Y-67000000D02*
X132840000Y-67930000D01*
X109730000Y-80320000D02*
X111190000Y-80320000D01*
X109730000Y-77160000D02*
X112890000Y-77160000D01*
X109730000Y-77160000D02*
X109730000Y-78090000D01*
X109730000Y-80320000D02*
X109730000Y-79390000D01*
X184910000Y-67000000D02*
X184910000Y-67930000D01*
X184910000Y-70160000D02*
X184910000Y-69230000D01*
X184910000Y-70160000D02*
X181750000Y-70160000D01*
X184910000Y-67000000D02*
X183450000Y-67000000D01*
X105100000Y-74170000D02*
X106030000Y-74170000D01*
X108260000Y-74170000D02*
X107330000Y-74170000D01*
X108260000Y-74170000D02*
X108260000Y-77330000D01*
X105100000Y-74170000D02*
X105100000Y-75630000D01*
X109730000Y-67620000D02*
X111190000Y-67620000D01*
X109730000Y-64460000D02*
X112890000Y-64460000D01*
X109730000Y-64460000D02*
X109730000Y-65390000D01*
X109730000Y-67620000D02*
X109730000Y-66690000D01*
X142750000Y-80320000D02*
X144210000Y-80320000D01*
X142750000Y-77160000D02*
X145910000Y-77160000D01*
X142750000Y-77160000D02*
X142750000Y-78090000D01*
X142750000Y-80320000D02*
X142750000Y-79390000D01*
X119070000Y-80520000D02*
X120000000Y-80520000D01*
X122230000Y-80520000D02*
X121300000Y-80520000D01*
X122230000Y-80520000D02*
X122230000Y-83680000D01*
X119070000Y-80520000D02*
X119070000Y-81980000D01*
X138120000Y-74170000D02*
X138120000Y-75630000D01*
X141280000Y-74170000D02*
X141280000Y-77330000D01*
X141280000Y-74170000D02*
X140350000Y-74170000D01*
X138120000Y-74170000D02*
X139050000Y-74170000D01*
X214940000Y-85850000D02*
X214940000Y-84390000D01*
X211780000Y-85850000D02*
X211780000Y-82690000D01*
X211780000Y-85850000D02*
X212710000Y-85850000D01*
X214940000Y-85850000D02*
X214010000Y-85850000D01*
X131570000Y-86050000D02*
X131570000Y-86980000D01*
X131570000Y-89210000D02*
X131570000Y-88280000D01*
X131570000Y-89210000D02*
X128410000Y-89210000D01*
X131570000Y-86050000D02*
X130110000Y-86050000D01*
X194820000Y-80320000D02*
X194820000Y-79390000D01*
X194820000Y-77160000D02*
X194820000Y-78090000D01*
X194820000Y-77160000D02*
X197980000Y-77160000D01*
X194820000Y-80320000D02*
X196280000Y-80320000D01*
X117120000Y-89530000D02*
X118580000Y-89530000D01*
X117120000Y-86370000D02*
X120280000Y-86370000D01*
X117120000Y-86370000D02*
X117120000Y-87300000D01*
X117120000Y-89530000D02*
X117120000Y-88600000D01*
X190190000Y-74170000D02*
X190190000Y-75630000D01*
X193350000Y-74170000D02*
X193350000Y-77330000D01*
X193350000Y-74170000D02*
X192420000Y-74170000D01*
X190190000Y-74170000D02*
X191120000Y-74170000D01*
X202890000Y-84330000D02*
X203820000Y-84330000D01*
X206050000Y-84330000D02*
X205120000Y-84330000D01*
X206050000Y-84330000D02*
X206050000Y-87490000D01*
X202890000Y-84330000D02*
X202890000Y-85790000D01*
X227840000Y-80320000D02*
X229300000Y-80320000D01*
X227840000Y-77160000D02*
X231000000Y-77160000D01*
X227840000Y-77160000D02*
X227840000Y-78090000D01*
X227840000Y-80320000D02*
X227840000Y-79390000D01*
X116310000Y-70160000D02*
X117770000Y-70160000D01*
X116310000Y-67000000D02*
X119470000Y-67000000D01*
X116310000Y-67000000D02*
X116310000Y-67930000D01*
X116310000Y-70160000D02*
X116310000Y-69230000D01*
X223210000Y-74170000D02*
X224140000Y-74170000D01*
X226370000Y-74170000D02*
X225440000Y-74170000D01*
X226370000Y-74170000D02*
X226370000Y-77330000D01*
X223210000Y-74170000D02*
X223210000Y-75630000D01*
X178760000Y-75440000D02*
X179690000Y-75440000D01*
X181920000Y-75440000D02*
X180990000Y-75440000D01*
X181920000Y-75440000D02*
X181920000Y-78600000D01*
X178760000Y-75440000D02*
X178760000Y-76900000D01*
X181010000Y-92955000D02*
X182210000Y-92955000D01*
X182210000Y-91195000D02*
X181010000Y-91195000D01*
X188480000Y-65160000D02*
X187280000Y-65160000D01*
X187280000Y-66920000D02*
X188480000Y-66920000D01*
X188640000Y-57540000D02*
X187440000Y-57540000D01*
X187440000Y-59300000D02*
X188640000Y-59300000D01*
X185030000Y-62830000D02*
X185030000Y-61630000D01*
X183270000Y-61630000D02*
X183270000Y-62830000D01*
X149340000Y-89780000D02*
X150540000Y-89780000D01*
X150540000Y-88020000D02*
X149340000Y-88020000D01*
X208950000Y-73270000D02*
X210150000Y-73270000D01*
X210150000Y-71510000D02*
X208950000Y-71510000D01*
X111010000Y-81670000D02*
X109810000Y-81670000D01*
X109810000Y-83430000D02*
X111010000Y-83430000D01*
X127880000Y-69180000D02*
X127880000Y-67980000D01*
X126120000Y-67980000D02*
X126120000Y-69180000D01*
X104730000Y-83430000D02*
X105930000Y-83430000D01*
X105930000Y-81670000D02*
X104730000Y-81670000D01*
X179950000Y-70450000D02*
X179950000Y-69250000D01*
X178190000Y-69250000D02*
X178190000Y-70450000D01*
X101990000Y-78060000D02*
X101990000Y-79260000D01*
X103750000Y-79260000D02*
X103750000Y-78060000D01*
X142910000Y-83430000D02*
X144110000Y-83430000D01*
X144110000Y-81670000D02*
X142910000Y-81670000D01*
X112510000Y-63110000D02*
X113710000Y-63110000D01*
X113710000Y-61350000D02*
X112510000Y-61350000D01*
X137830000Y-83430000D02*
X139030000Y-83430000D01*
X139030000Y-81670000D02*
X137830000Y-81670000D01*
X121530000Y-75530000D02*
X121530000Y-74330000D01*
X119770000Y-74330000D02*
X119770000Y-75530000D01*
X136770000Y-79340000D02*
X136770000Y-78140000D01*
X135010000Y-78140000D02*
X135010000Y-79340000D01*
X211410000Y-80890000D02*
X212610000Y-80890000D01*
X212610000Y-79130000D02*
X211410000Y-79130000D01*
X195060000Y-83430000D02*
X196260000Y-83430000D01*
X196260000Y-81670000D02*
X195060000Y-81670000D01*
X126610000Y-88230000D02*
X126610000Y-87030000D01*
X124850000Y-87030000D02*
X124850000Y-88230000D01*
X189980000Y-83430000D02*
X191180000Y-83430000D01*
X191180000Y-81670000D02*
X189980000Y-81670000D01*
X123580000Y-80600000D02*
X123580000Y-81800000D01*
X125340000Y-81800000D02*
X125340000Y-80600000D01*
X188840000Y-79340000D02*
X188840000Y-78140000D01*
X187080000Y-78140000D02*
X187080000Y-79340000D01*
X229200000Y-81670000D02*
X228000000Y-81670000D01*
X228000000Y-83430000D02*
X229200000Y-83430000D01*
X203800000Y-89290000D02*
X202600000Y-89290000D01*
X202600000Y-91050000D02*
X203800000Y-91050000D01*
X224120000Y-81670000D02*
X222920000Y-81670000D01*
X222920000Y-83430000D02*
X224120000Y-83430000D01*
X119980000Y-63890000D02*
X118780000Y-63890000D01*
X118780000Y-65650000D02*
X119980000Y-65650000D01*
X220100000Y-78140000D02*
X220100000Y-79340000D01*
X221860000Y-79340000D02*
X221860000Y-78140000D01*
X179740000Y-82160000D02*
X180940000Y-82160000D01*
X180940000Y-80400000D02*
X179740000Y-80400000D01*
X124170000Y-59290000D02*
X130180000Y-59290000D01*
X126420000Y-52470000D02*
X130180000Y-52470000D01*
X130180000Y-59290000D02*
X130180000Y-58030000D01*
X130180000Y-52470000D02*
X130180000Y-53730000D01*
D11*
X195565000Y-64305000D02*
X195565000Y-65705000D01*
X190465000Y-64305000D02*
X190465000Y-60155000D01*
X195615000Y-64305000D02*
X195615000Y-60155000D01*
X190465000Y-64305000D02*
X190610000Y-64305000D01*
X190465000Y-60155000D02*
X190610000Y-60155000D01*
X195615000Y-60155000D02*
X195470000Y-60155000D01*
X195615000Y-64305000D02*
X195565000Y-64305000D01*
D12*
X157047981Y-91604000D02*
G75*
G03X157047981Y-91604000I-283981J0D01*
G01*
D11*
X175670000Y-91750000D02*
X157670000Y-91750000D01*
X157670000Y-97750000D02*
X157670000Y-72250000D01*
X175670000Y-97750000D02*
X175670000Y-72250000D01*
X175670000Y-72250000D02*
X157670000Y-72250000D01*
X175670000Y-97750000D02*
X157670000Y-97750000D01*
D10*
X198090000Y-65175000D02*
X198090000Y-59285000D01*
X203230000Y-65630000D02*
X203230000Y-59285000D01*
D11*
X112528571Y-55546666D02*
X112528571Y-55213333D01*
X113052380Y-55213333D02*
X112052380Y-55213333D01*
X112052380Y-55689523D01*
X113052380Y-56594285D02*
X113052380Y-56022857D01*
X113052380Y-56308571D02*
X112052380Y-56308571D01*
X112195238Y-56213333D01*
X112290476Y-56118095D01*
X112338095Y-56022857D01*
X168401904Y-66662380D02*
X168401904Y-67471904D01*
X168354285Y-67567142D01*
X168306666Y-67614761D01*
X168211428Y-67662380D01*
X168020952Y-67662380D01*
X167925714Y-67614761D01*
X167878095Y-67567142D01*
X167830476Y-67471904D01*
X167830476Y-66662380D01*
X167401904Y-66757619D02*
X167354285Y-66710000D01*
X167259047Y-66662380D01*
X167020952Y-66662380D01*
X166925714Y-66710000D01*
X166878095Y-66757619D01*
X166830476Y-66852857D01*
X166830476Y-66948095D01*
X166878095Y-67090952D01*
X167449523Y-67662380D01*
X166830476Y-67662380D01*
X120816666Y-55447142D02*
X120864285Y-55494761D01*
X121007142Y-55542380D01*
X121102380Y-55542380D01*
X121245238Y-55494761D01*
X121340476Y-55399523D01*
X121388095Y-55304285D01*
X121435714Y-55113809D01*
X121435714Y-54970952D01*
X121388095Y-54780476D01*
X121340476Y-54685238D01*
X121245238Y-54590000D01*
X121102380Y-54542380D01*
X121007142Y-54542380D01*
X120864285Y-54590000D01*
X120816666Y-54637619D01*
X119864285Y-55542380D02*
X120435714Y-55542380D01*
X120150000Y-55542380D02*
X120150000Y-54542380D01*
X120245238Y-54685238D01*
X120340476Y-54780476D01*
X120435714Y-54828095D01*
X153547142Y-63333333D02*
X153594761Y-63285714D01*
X153642380Y-63142857D01*
X153642380Y-63047619D01*
X153594761Y-62904761D01*
X153499523Y-62809523D01*
X153404285Y-62761904D01*
X153213809Y-62714285D01*
X153070952Y-62714285D01*
X152880476Y-62761904D01*
X152785238Y-62809523D01*
X152690000Y-62904761D01*
X152642380Y-63047619D01*
X152642380Y-63142857D01*
X152690000Y-63285714D01*
X152737619Y-63333333D01*
X152737619Y-63714285D02*
X152690000Y-63761904D01*
X152642380Y-63857142D01*
X152642380Y-64095238D01*
X152690000Y-64190476D01*
X152737619Y-64238095D01*
X152832857Y-64285714D01*
X152928095Y-64285714D01*
X153070952Y-64238095D01*
X153642380Y-63666666D01*
X153642380Y-64285714D01*
X120816666Y-57027142D02*
X120864285Y-57074761D01*
X121007142Y-57122380D01*
X121102380Y-57122380D01*
X121245238Y-57074761D01*
X121340476Y-56979523D01*
X121388095Y-56884285D01*
X121435714Y-56693809D01*
X121435714Y-56550952D01*
X121388095Y-56360476D01*
X121340476Y-56265238D01*
X121245238Y-56170000D01*
X121102380Y-56122380D01*
X121007142Y-56122380D01*
X120864285Y-56170000D01*
X120816666Y-56217619D01*
X120483333Y-56122380D02*
X119864285Y-56122380D01*
X120197619Y-56503333D01*
X120054761Y-56503333D01*
X119959523Y-56550952D01*
X119911904Y-56598571D01*
X119864285Y-56693809D01*
X119864285Y-56931904D01*
X119911904Y-57027142D01*
X119959523Y-57074761D01*
X120054761Y-57122380D01*
X120340476Y-57122380D01*
X120435714Y-57074761D01*
X120483333Y-57027142D01*
X150026666Y-90047142D02*
X150074285Y-90094761D01*
X150217142Y-90142380D01*
X150312380Y-90142380D01*
X150455238Y-90094761D01*
X150550476Y-89999523D01*
X150598095Y-89904285D01*
X150645714Y-89713809D01*
X150645714Y-89570952D01*
X150598095Y-89380476D01*
X150550476Y-89285238D01*
X150455238Y-89190000D01*
X150312380Y-89142380D01*
X150217142Y-89142380D01*
X150074285Y-89190000D01*
X150026666Y-89237619D01*
X149169523Y-89475714D02*
X149169523Y-90142380D01*
X149407619Y-89094761D02*
X149645714Y-89809047D01*
X149026666Y-89809047D01*
X187047142Y-62083333D02*
X187094761Y-62035714D01*
X187142380Y-61892857D01*
X187142380Y-61797619D01*
X187094761Y-61654761D01*
X186999523Y-61559523D01*
X186904285Y-61511904D01*
X186713809Y-61464285D01*
X186570952Y-61464285D01*
X186380476Y-61511904D01*
X186285238Y-61559523D01*
X186190000Y-61654761D01*
X186142380Y-61797619D01*
X186142380Y-61892857D01*
X186190000Y-62035714D01*
X186237619Y-62083333D01*
X186142380Y-62988095D02*
X186142380Y-62511904D01*
X186618571Y-62464285D01*
X186570952Y-62511904D01*
X186523333Y-62607142D01*
X186523333Y-62845238D01*
X186570952Y-62940476D01*
X186618571Y-62988095D01*
X186713809Y-63035714D01*
X186951904Y-63035714D01*
X187047142Y-62988095D01*
X187094761Y-62940476D01*
X187142380Y-62845238D01*
X187142380Y-62607142D01*
X187094761Y-62511904D01*
X187047142Y-62464285D01*
X155777142Y-90003333D02*
X155824761Y-89955714D01*
X155872380Y-89812857D01*
X155872380Y-89717619D01*
X155824761Y-89574761D01*
X155729523Y-89479523D01*
X155634285Y-89431904D01*
X155443809Y-89384285D01*
X155300952Y-89384285D01*
X155110476Y-89431904D01*
X155015238Y-89479523D01*
X154920000Y-89574761D01*
X154872380Y-89717619D01*
X154872380Y-89812857D01*
X154920000Y-89955714D01*
X154967619Y-90003333D01*
X154872380Y-90860476D02*
X154872380Y-90670000D01*
X154920000Y-90574761D01*
X154967619Y-90527142D01*
X155110476Y-90431904D01*
X155300952Y-90384285D01*
X155681904Y-90384285D01*
X155777142Y-90431904D01*
X155824761Y-90479523D01*
X155872380Y-90574761D01*
X155872380Y-90765238D01*
X155824761Y-90860476D01*
X155777142Y-90908095D01*
X155681904Y-90955714D01*
X155443809Y-90955714D01*
X155348571Y-90908095D01*
X155300952Y-90860476D01*
X155253333Y-90765238D01*
X155253333Y-90574761D01*
X155300952Y-90479523D01*
X155348571Y-90431904D01*
X155443809Y-90384285D01*
X152277142Y-84943333D02*
X152324761Y-84895714D01*
X152372380Y-84752857D01*
X152372380Y-84657619D01*
X152324761Y-84514761D01*
X152229523Y-84419523D01*
X152134285Y-84371904D01*
X151943809Y-84324285D01*
X151800952Y-84324285D01*
X151610476Y-84371904D01*
X151515238Y-84419523D01*
X151420000Y-84514761D01*
X151372380Y-84657619D01*
X151372380Y-84752857D01*
X151420000Y-84895714D01*
X151467619Y-84943333D01*
X151800952Y-85514761D02*
X151753333Y-85419523D01*
X151705714Y-85371904D01*
X151610476Y-85324285D01*
X151562857Y-85324285D01*
X151467619Y-85371904D01*
X151420000Y-85419523D01*
X151372380Y-85514761D01*
X151372380Y-85705238D01*
X151420000Y-85800476D01*
X151467619Y-85848095D01*
X151562857Y-85895714D01*
X151610476Y-85895714D01*
X151705714Y-85848095D01*
X151753333Y-85800476D01*
X151800952Y-85705238D01*
X151800952Y-85514761D01*
X151848571Y-85419523D01*
X151896190Y-85371904D01*
X151991428Y-85324285D01*
X152181904Y-85324285D01*
X152277142Y-85371904D01*
X152324761Y-85419523D01*
X152372380Y-85514761D01*
X152372380Y-85705238D01*
X152324761Y-85800476D01*
X152277142Y-85848095D01*
X152181904Y-85895714D01*
X151991428Y-85895714D01*
X151896190Y-85848095D01*
X151848571Y-85800476D01*
X151800952Y-85705238D01*
X205835238Y-66627619D02*
X205930476Y-66580000D01*
X206025714Y-66484761D01*
X206168571Y-66341904D01*
X206263809Y-66294285D01*
X206359047Y-66294285D01*
X206311428Y-66532380D02*
X206406666Y-66484761D01*
X206501904Y-66389523D01*
X206549523Y-66199047D01*
X206549523Y-65865714D01*
X206501904Y-65675238D01*
X206406666Y-65580000D01*
X206311428Y-65532380D01*
X206120952Y-65532380D01*
X206025714Y-65580000D01*
X205930476Y-65675238D01*
X205882857Y-65865714D01*
X205882857Y-66199047D01*
X205930476Y-66389523D01*
X206025714Y-66484761D01*
X206120952Y-66532380D01*
X206311428Y-66532380D01*
X204930476Y-66532380D02*
X205501904Y-66532380D01*
X205216190Y-66532380D02*
X205216190Y-65532380D01*
X205311428Y-65675238D01*
X205406666Y-65770476D01*
X205501904Y-65818095D01*
X213455238Y-66627619D02*
X213550476Y-66580000D01*
X213645714Y-66484761D01*
X213788571Y-66341904D01*
X213883809Y-66294285D01*
X213979047Y-66294285D01*
X213931428Y-66532380D02*
X214026666Y-66484761D01*
X214121904Y-66389523D01*
X214169523Y-66199047D01*
X214169523Y-65865714D01*
X214121904Y-65675238D01*
X214026666Y-65580000D01*
X213931428Y-65532380D01*
X213740952Y-65532380D01*
X213645714Y-65580000D01*
X213550476Y-65675238D01*
X213502857Y-65865714D01*
X213502857Y-66199047D01*
X213550476Y-66389523D01*
X213645714Y-66484761D01*
X213740952Y-66532380D01*
X213931428Y-66532380D01*
X213121904Y-65627619D02*
X213074285Y-65580000D01*
X212979047Y-65532380D01*
X212740952Y-65532380D01*
X212645714Y-65580000D01*
X212598095Y-65627619D01*
X212550476Y-65722857D01*
X212550476Y-65818095D01*
X212598095Y-65960952D01*
X213169523Y-66532380D01*
X212550476Y-66532380D01*
X132175238Y-71627619D02*
X132270476Y-71580000D01*
X132365714Y-71484761D01*
X132508571Y-71341904D01*
X132603809Y-71294285D01*
X132699047Y-71294285D01*
X132651428Y-71532380D02*
X132746666Y-71484761D01*
X132841904Y-71389523D01*
X132889523Y-71199047D01*
X132889523Y-70865714D01*
X132841904Y-70675238D01*
X132746666Y-70580000D01*
X132651428Y-70532380D01*
X132460952Y-70532380D01*
X132365714Y-70580000D01*
X132270476Y-70675238D01*
X132222857Y-70865714D01*
X132222857Y-71199047D01*
X132270476Y-71389523D01*
X132365714Y-71484761D01*
X132460952Y-71532380D01*
X132651428Y-71532380D01*
X131365714Y-70865714D02*
X131365714Y-71532380D01*
X131603809Y-70484761D02*
X131841904Y-71199047D01*
X131222857Y-71199047D01*
X110585238Y-76787619D02*
X110680476Y-76740000D01*
X110775714Y-76644761D01*
X110918571Y-76501904D01*
X111013809Y-76454285D01*
X111109047Y-76454285D01*
X111061428Y-76692380D02*
X111156666Y-76644761D01*
X111251904Y-76549523D01*
X111299523Y-76359047D01*
X111299523Y-76025714D01*
X111251904Y-75835238D01*
X111156666Y-75740000D01*
X111061428Y-75692380D01*
X110870952Y-75692380D01*
X110775714Y-75740000D01*
X110680476Y-75835238D01*
X110632857Y-76025714D01*
X110632857Y-76359047D01*
X110680476Y-76549523D01*
X110775714Y-76644761D01*
X110870952Y-76692380D01*
X111061428Y-76692380D01*
X109728095Y-75692380D02*
X110204285Y-75692380D01*
X110251904Y-76168571D01*
X110204285Y-76120952D01*
X110109047Y-76073333D01*
X109870952Y-76073333D01*
X109775714Y-76120952D01*
X109728095Y-76168571D01*
X109680476Y-76263809D01*
X109680476Y-76501904D01*
X109728095Y-76597142D01*
X109775714Y-76644761D01*
X109870952Y-76692380D01*
X110109047Y-76692380D01*
X110204285Y-76644761D01*
X110251904Y-76597142D01*
X184245238Y-71627619D02*
X184340476Y-71580000D01*
X184435714Y-71484761D01*
X184578571Y-71341904D01*
X184673809Y-71294285D01*
X184769047Y-71294285D01*
X184721428Y-71532380D02*
X184816666Y-71484761D01*
X184911904Y-71389523D01*
X184959523Y-71199047D01*
X184959523Y-70865714D01*
X184911904Y-70675238D01*
X184816666Y-70580000D01*
X184721428Y-70532380D01*
X184530952Y-70532380D01*
X184435714Y-70580000D01*
X184340476Y-70675238D01*
X184292857Y-70865714D01*
X184292857Y-71199047D01*
X184340476Y-71389523D01*
X184435714Y-71484761D01*
X184530952Y-71532380D01*
X184721428Y-71532380D01*
X183435714Y-70532380D02*
X183626190Y-70532380D01*
X183721428Y-70580000D01*
X183769047Y-70627619D01*
X183864285Y-70770476D01*
X183911904Y-70960952D01*
X183911904Y-71341904D01*
X183864285Y-71437142D01*
X183816666Y-71484761D01*
X183721428Y-71532380D01*
X183530952Y-71532380D01*
X183435714Y-71484761D01*
X183388095Y-71437142D01*
X183340476Y-71341904D01*
X183340476Y-71103809D01*
X183388095Y-71008571D01*
X183435714Y-70960952D01*
X183530952Y-70913333D01*
X183721428Y-70913333D01*
X183816666Y-70960952D01*
X183864285Y-71008571D01*
X183911904Y-71103809D01*
X109727619Y-74834761D02*
X109680000Y-74739523D01*
X109584761Y-74644285D01*
X109441904Y-74501428D01*
X109394285Y-74406190D01*
X109394285Y-74310952D01*
X109632380Y-74358571D02*
X109584761Y-74263333D01*
X109489523Y-74168095D01*
X109299047Y-74120476D01*
X108965714Y-74120476D01*
X108775238Y-74168095D01*
X108680000Y-74263333D01*
X108632380Y-74358571D01*
X108632380Y-74549047D01*
X108680000Y-74644285D01*
X108775238Y-74739523D01*
X108965714Y-74787142D01*
X109299047Y-74787142D01*
X109489523Y-74739523D01*
X109584761Y-74644285D01*
X109632380Y-74549047D01*
X109632380Y-74358571D01*
X108632380Y-75120476D02*
X108632380Y-75787142D01*
X109632380Y-75358571D01*
X110585238Y-64087619D02*
X110680476Y-64040000D01*
X110775714Y-63944761D01*
X110918571Y-63801904D01*
X111013809Y-63754285D01*
X111109047Y-63754285D01*
X111061428Y-63992380D02*
X111156666Y-63944761D01*
X111251904Y-63849523D01*
X111299523Y-63659047D01*
X111299523Y-63325714D01*
X111251904Y-63135238D01*
X111156666Y-63040000D01*
X111061428Y-62992380D01*
X110870952Y-62992380D01*
X110775714Y-63040000D01*
X110680476Y-63135238D01*
X110632857Y-63325714D01*
X110632857Y-63659047D01*
X110680476Y-63849523D01*
X110775714Y-63944761D01*
X110870952Y-63992380D01*
X111061428Y-63992380D01*
X110061428Y-63420952D02*
X110156666Y-63373333D01*
X110204285Y-63325714D01*
X110251904Y-63230476D01*
X110251904Y-63182857D01*
X110204285Y-63087619D01*
X110156666Y-63040000D01*
X110061428Y-62992380D01*
X109870952Y-62992380D01*
X109775714Y-63040000D01*
X109728095Y-63087619D01*
X109680476Y-63182857D01*
X109680476Y-63230476D01*
X109728095Y-63325714D01*
X109775714Y-63373333D01*
X109870952Y-63420952D01*
X110061428Y-63420952D01*
X110156666Y-63468571D01*
X110204285Y-63516190D01*
X110251904Y-63611428D01*
X110251904Y-63801904D01*
X110204285Y-63897142D01*
X110156666Y-63944761D01*
X110061428Y-63992380D01*
X109870952Y-63992380D01*
X109775714Y-63944761D01*
X109728095Y-63897142D01*
X109680476Y-63801904D01*
X109680476Y-63611428D01*
X109728095Y-63516190D01*
X109775714Y-63468571D01*
X109870952Y-63420952D01*
X144875238Y-76787619D02*
X144970476Y-76740000D01*
X145065714Y-76644761D01*
X145208571Y-76501904D01*
X145303809Y-76454285D01*
X145399047Y-76454285D01*
X145351428Y-76692380D02*
X145446666Y-76644761D01*
X145541904Y-76549523D01*
X145589523Y-76359047D01*
X145589523Y-76025714D01*
X145541904Y-75835238D01*
X145446666Y-75740000D01*
X145351428Y-75692380D01*
X145160952Y-75692380D01*
X145065714Y-75740000D01*
X144970476Y-75835238D01*
X144922857Y-76025714D01*
X144922857Y-76359047D01*
X144970476Y-76549523D01*
X145065714Y-76644761D01*
X145160952Y-76692380D01*
X145351428Y-76692380D01*
X144446666Y-76692380D02*
X144256190Y-76692380D01*
X144160952Y-76644761D01*
X144113333Y-76597142D01*
X144018095Y-76454285D01*
X143970476Y-76263809D01*
X143970476Y-75882857D01*
X144018095Y-75787619D01*
X144065714Y-75740000D01*
X144160952Y-75692380D01*
X144351428Y-75692380D01*
X144446666Y-75740000D01*
X144494285Y-75787619D01*
X144541904Y-75882857D01*
X144541904Y-76120952D01*
X144494285Y-76216190D01*
X144446666Y-76263809D01*
X144351428Y-76311428D01*
X144160952Y-76311428D01*
X144065714Y-76263809D01*
X144018095Y-76216190D01*
X143970476Y-76120952D01*
X123737619Y-78168571D02*
X123690000Y-78073333D01*
X123594761Y-77978095D01*
X123451904Y-77835238D01*
X123404285Y-77740000D01*
X123404285Y-77644761D01*
X123642380Y-77692380D02*
X123594761Y-77597142D01*
X123499523Y-77501904D01*
X123309047Y-77454285D01*
X122975714Y-77454285D01*
X122785238Y-77501904D01*
X122690000Y-77597142D01*
X122642380Y-77692380D01*
X122642380Y-77882857D01*
X122690000Y-77978095D01*
X122785238Y-78073333D01*
X122975714Y-78120952D01*
X123309047Y-78120952D01*
X123499523Y-78073333D01*
X123594761Y-77978095D01*
X123642380Y-77882857D01*
X123642380Y-77692380D01*
X123642380Y-79073333D02*
X123642380Y-78501904D01*
X123642380Y-78787619D02*
X122642380Y-78787619D01*
X122785238Y-78692380D01*
X122880476Y-78597142D01*
X122928095Y-78501904D01*
X122642380Y-79692380D02*
X122642380Y-79787619D01*
X122690000Y-79882857D01*
X122737619Y-79930476D01*
X122832857Y-79978095D01*
X123023333Y-80025714D01*
X123261428Y-80025714D01*
X123451904Y-79978095D01*
X123547142Y-79930476D01*
X123594761Y-79882857D01*
X123642380Y-79787619D01*
X123642380Y-79692380D01*
X123594761Y-79597142D01*
X123547142Y-79549523D01*
X123451904Y-79501904D01*
X123261428Y-79454285D01*
X123023333Y-79454285D01*
X122832857Y-79501904D01*
X122737619Y-79549523D01*
X122690000Y-79597142D01*
X122642380Y-79692380D01*
X142747619Y-74358571D02*
X142700000Y-74263333D01*
X142604761Y-74168095D01*
X142461904Y-74025238D01*
X142414285Y-73930000D01*
X142414285Y-73834761D01*
X142652380Y-73882380D02*
X142604761Y-73787142D01*
X142509523Y-73691904D01*
X142319047Y-73644285D01*
X141985714Y-73644285D01*
X141795238Y-73691904D01*
X141700000Y-73787142D01*
X141652380Y-73882380D01*
X141652380Y-74072857D01*
X141700000Y-74168095D01*
X141795238Y-74263333D01*
X141985714Y-74310952D01*
X142319047Y-74310952D01*
X142509523Y-74263333D01*
X142604761Y-74168095D01*
X142652380Y-74072857D01*
X142652380Y-73882380D01*
X142652380Y-75263333D02*
X142652380Y-74691904D01*
X142652380Y-74977619D02*
X141652380Y-74977619D01*
X141795238Y-74882380D01*
X141890476Y-74787142D01*
X141938095Y-74691904D01*
X142652380Y-76215714D02*
X142652380Y-75644285D01*
X142652380Y-75930000D02*
X141652380Y-75930000D01*
X141795238Y-75834761D01*
X141890476Y-75739523D01*
X141938095Y-75644285D01*
X211407619Y-84518571D02*
X211360000Y-84423333D01*
X211264761Y-84328095D01*
X211121904Y-84185238D01*
X211074285Y-84090000D01*
X211074285Y-83994761D01*
X211312380Y-84042380D02*
X211264761Y-83947142D01*
X211169523Y-83851904D01*
X210979047Y-83804285D01*
X210645714Y-83804285D01*
X210455238Y-83851904D01*
X210360000Y-83947142D01*
X210312380Y-84042380D01*
X210312380Y-84232857D01*
X210360000Y-84328095D01*
X210455238Y-84423333D01*
X210645714Y-84470952D01*
X210979047Y-84470952D01*
X211169523Y-84423333D01*
X211264761Y-84328095D01*
X211312380Y-84232857D01*
X211312380Y-84042380D01*
X211312380Y-85423333D02*
X211312380Y-84851904D01*
X211312380Y-85137619D02*
X210312380Y-85137619D01*
X210455238Y-85042380D01*
X210550476Y-84947142D01*
X210598095Y-84851904D01*
X210407619Y-85804285D02*
X210360000Y-85851904D01*
X210312380Y-85947142D01*
X210312380Y-86185238D01*
X210360000Y-86280476D01*
X210407619Y-86328095D01*
X210502857Y-86375714D01*
X210598095Y-86375714D01*
X210740952Y-86328095D01*
X211312380Y-85756666D01*
X211312380Y-86375714D01*
X131381428Y-90677619D02*
X131476666Y-90630000D01*
X131571904Y-90534761D01*
X131714761Y-90391904D01*
X131810000Y-90344285D01*
X131905238Y-90344285D01*
X131857619Y-90582380D02*
X131952857Y-90534761D01*
X132048095Y-90439523D01*
X132095714Y-90249047D01*
X132095714Y-89915714D01*
X132048095Y-89725238D01*
X131952857Y-89630000D01*
X131857619Y-89582380D01*
X131667142Y-89582380D01*
X131571904Y-89630000D01*
X131476666Y-89725238D01*
X131429047Y-89915714D01*
X131429047Y-90249047D01*
X131476666Y-90439523D01*
X131571904Y-90534761D01*
X131667142Y-90582380D01*
X131857619Y-90582380D01*
X130476666Y-90582380D02*
X131048095Y-90582380D01*
X130762380Y-90582380D02*
X130762380Y-89582380D01*
X130857619Y-89725238D01*
X130952857Y-89820476D01*
X131048095Y-89868095D01*
X130143333Y-89582380D02*
X129524285Y-89582380D01*
X129857619Y-89963333D01*
X129714761Y-89963333D01*
X129619523Y-90010952D01*
X129571904Y-90058571D01*
X129524285Y-90153809D01*
X129524285Y-90391904D01*
X129571904Y-90487142D01*
X129619523Y-90534761D01*
X129714761Y-90582380D01*
X130000476Y-90582380D01*
X130095714Y-90534761D01*
X130143333Y-90487142D01*
X196151428Y-76787619D02*
X196246666Y-76740000D01*
X196341904Y-76644761D01*
X196484761Y-76501904D01*
X196580000Y-76454285D01*
X196675238Y-76454285D01*
X196627619Y-76692380D02*
X196722857Y-76644761D01*
X196818095Y-76549523D01*
X196865714Y-76359047D01*
X196865714Y-76025714D01*
X196818095Y-75835238D01*
X196722857Y-75740000D01*
X196627619Y-75692380D01*
X196437142Y-75692380D01*
X196341904Y-75740000D01*
X196246666Y-75835238D01*
X196199047Y-76025714D01*
X196199047Y-76359047D01*
X196246666Y-76549523D01*
X196341904Y-76644761D01*
X196437142Y-76692380D01*
X196627619Y-76692380D01*
X195246666Y-76692380D02*
X195818095Y-76692380D01*
X195532380Y-76692380D02*
X195532380Y-75692380D01*
X195627619Y-75835238D01*
X195722857Y-75930476D01*
X195818095Y-75978095D01*
X194389523Y-76025714D02*
X194389523Y-76692380D01*
X194627619Y-75644761D02*
X194865714Y-76359047D01*
X194246666Y-76359047D01*
X118451428Y-85997619D02*
X118546666Y-85950000D01*
X118641904Y-85854761D01*
X118784761Y-85711904D01*
X118880000Y-85664285D01*
X118975238Y-85664285D01*
X118927619Y-85902380D02*
X119022857Y-85854761D01*
X119118095Y-85759523D01*
X119165714Y-85569047D01*
X119165714Y-85235714D01*
X119118095Y-85045238D01*
X119022857Y-84950000D01*
X118927619Y-84902380D01*
X118737142Y-84902380D01*
X118641904Y-84950000D01*
X118546666Y-85045238D01*
X118499047Y-85235714D01*
X118499047Y-85569047D01*
X118546666Y-85759523D01*
X118641904Y-85854761D01*
X118737142Y-85902380D01*
X118927619Y-85902380D01*
X117546666Y-85902380D02*
X118118095Y-85902380D01*
X117832380Y-85902380D02*
X117832380Y-84902380D01*
X117927619Y-85045238D01*
X118022857Y-85140476D01*
X118118095Y-85188095D01*
X116641904Y-84902380D02*
X117118095Y-84902380D01*
X117165714Y-85378571D01*
X117118095Y-85330952D01*
X117022857Y-85283333D01*
X116784761Y-85283333D01*
X116689523Y-85330952D01*
X116641904Y-85378571D01*
X116594285Y-85473809D01*
X116594285Y-85711904D01*
X116641904Y-85807142D01*
X116689523Y-85854761D01*
X116784761Y-85902380D01*
X117022857Y-85902380D01*
X117118095Y-85854761D01*
X117165714Y-85807142D01*
X194817619Y-74358571D02*
X194770000Y-74263333D01*
X194674761Y-74168095D01*
X194531904Y-74025238D01*
X194484285Y-73930000D01*
X194484285Y-73834761D01*
X194722380Y-73882380D02*
X194674761Y-73787142D01*
X194579523Y-73691904D01*
X194389047Y-73644285D01*
X194055714Y-73644285D01*
X193865238Y-73691904D01*
X193770000Y-73787142D01*
X193722380Y-73882380D01*
X193722380Y-74072857D01*
X193770000Y-74168095D01*
X193865238Y-74263333D01*
X194055714Y-74310952D01*
X194389047Y-74310952D01*
X194579523Y-74263333D01*
X194674761Y-74168095D01*
X194722380Y-74072857D01*
X194722380Y-73882380D01*
X194722380Y-75263333D02*
X194722380Y-74691904D01*
X194722380Y-74977619D02*
X193722380Y-74977619D01*
X193865238Y-74882380D01*
X193960476Y-74787142D01*
X194008095Y-74691904D01*
X193722380Y-76120476D02*
X193722380Y-75930000D01*
X193770000Y-75834761D01*
X193817619Y-75787142D01*
X193960476Y-75691904D01*
X194150952Y-75644285D01*
X194531904Y-75644285D01*
X194627142Y-75691904D01*
X194674761Y-75739523D01*
X194722380Y-75834761D01*
X194722380Y-76025238D01*
X194674761Y-76120476D01*
X194627142Y-76168095D01*
X194531904Y-76215714D01*
X194293809Y-76215714D01*
X194198571Y-76168095D01*
X194150952Y-76120476D01*
X194103333Y-76025238D01*
X194103333Y-75834761D01*
X194150952Y-75739523D01*
X194198571Y-75691904D01*
X194293809Y-75644285D01*
X207517619Y-84518571D02*
X207470000Y-84423333D01*
X207374761Y-84328095D01*
X207231904Y-84185238D01*
X207184285Y-84090000D01*
X207184285Y-83994761D01*
X207422380Y-84042380D02*
X207374761Y-83947142D01*
X207279523Y-83851904D01*
X207089047Y-83804285D01*
X206755714Y-83804285D01*
X206565238Y-83851904D01*
X206470000Y-83947142D01*
X206422380Y-84042380D01*
X206422380Y-84232857D01*
X206470000Y-84328095D01*
X206565238Y-84423333D01*
X206755714Y-84470952D01*
X207089047Y-84470952D01*
X207279523Y-84423333D01*
X207374761Y-84328095D01*
X207422380Y-84232857D01*
X207422380Y-84042380D01*
X207422380Y-85423333D02*
X207422380Y-84851904D01*
X207422380Y-85137619D02*
X206422380Y-85137619D01*
X206565238Y-85042380D01*
X206660476Y-84947142D01*
X206708095Y-84851904D01*
X206422380Y-85756666D02*
X206422380Y-86423333D01*
X207422380Y-85994761D01*
X230441428Y-76747619D02*
X230536666Y-76700000D01*
X230631904Y-76604761D01*
X230774761Y-76461904D01*
X230870000Y-76414285D01*
X230965238Y-76414285D01*
X230917619Y-76652380D02*
X231012857Y-76604761D01*
X231108095Y-76509523D01*
X231155714Y-76319047D01*
X231155714Y-75985714D01*
X231108095Y-75795238D01*
X231012857Y-75700000D01*
X230917619Y-75652380D01*
X230727142Y-75652380D01*
X230631904Y-75700000D01*
X230536666Y-75795238D01*
X230489047Y-75985714D01*
X230489047Y-76319047D01*
X230536666Y-76509523D01*
X230631904Y-76604761D01*
X230727142Y-76652380D01*
X230917619Y-76652380D01*
X229536666Y-76652380D02*
X230108095Y-76652380D01*
X229822380Y-76652380D02*
X229822380Y-75652380D01*
X229917619Y-75795238D01*
X230012857Y-75890476D01*
X230108095Y-75938095D01*
X228965238Y-76080952D02*
X229060476Y-76033333D01*
X229108095Y-75985714D01*
X229155714Y-75890476D01*
X229155714Y-75842857D01*
X229108095Y-75747619D01*
X229060476Y-75700000D01*
X228965238Y-75652380D01*
X228774761Y-75652380D01*
X228679523Y-75700000D01*
X228631904Y-75747619D01*
X228584285Y-75842857D01*
X228584285Y-75890476D01*
X228631904Y-75985714D01*
X228679523Y-76033333D01*
X228774761Y-76080952D01*
X228965238Y-76080952D01*
X229060476Y-76128571D01*
X229108095Y-76176190D01*
X229155714Y-76271428D01*
X229155714Y-76461904D01*
X229108095Y-76557142D01*
X229060476Y-76604761D01*
X228965238Y-76652380D01*
X228774761Y-76652380D01*
X228679523Y-76604761D01*
X228631904Y-76557142D01*
X228584285Y-76461904D01*
X228584285Y-76271428D01*
X228631904Y-76176190D01*
X228679523Y-76128571D01*
X228774761Y-76080952D01*
X117641428Y-66627619D02*
X117736666Y-66580000D01*
X117831904Y-66484761D01*
X117974761Y-66341904D01*
X118070000Y-66294285D01*
X118165238Y-66294285D01*
X118117619Y-66532380D02*
X118212857Y-66484761D01*
X118308095Y-66389523D01*
X118355714Y-66199047D01*
X118355714Y-65865714D01*
X118308095Y-65675238D01*
X118212857Y-65580000D01*
X118117619Y-65532380D01*
X117927142Y-65532380D01*
X117831904Y-65580000D01*
X117736666Y-65675238D01*
X117689047Y-65865714D01*
X117689047Y-66199047D01*
X117736666Y-66389523D01*
X117831904Y-66484761D01*
X117927142Y-66532380D01*
X118117619Y-66532380D01*
X116736666Y-66532380D02*
X117308095Y-66532380D01*
X117022380Y-66532380D02*
X117022380Y-65532380D01*
X117117619Y-65675238D01*
X117212857Y-65770476D01*
X117308095Y-65818095D01*
X116260476Y-66532380D02*
X116070000Y-66532380D01*
X115974761Y-66484761D01*
X115927142Y-66437142D01*
X115831904Y-66294285D01*
X115784285Y-66103809D01*
X115784285Y-65722857D01*
X115831904Y-65627619D01*
X115879523Y-65580000D01*
X115974761Y-65532380D01*
X116165238Y-65532380D01*
X116260476Y-65580000D01*
X116308095Y-65627619D01*
X116355714Y-65722857D01*
X116355714Y-65960952D01*
X116308095Y-66056190D01*
X116260476Y-66103809D01*
X116165238Y-66151428D01*
X115974761Y-66151428D01*
X115879523Y-66103809D01*
X115831904Y-66056190D01*
X115784285Y-65960952D01*
X227837619Y-74358571D02*
X227790000Y-74263333D01*
X227694761Y-74168095D01*
X227551904Y-74025238D01*
X227504285Y-73930000D01*
X227504285Y-73834761D01*
X227742380Y-73882380D02*
X227694761Y-73787142D01*
X227599523Y-73691904D01*
X227409047Y-73644285D01*
X227075714Y-73644285D01*
X226885238Y-73691904D01*
X226790000Y-73787142D01*
X226742380Y-73882380D01*
X226742380Y-74072857D01*
X226790000Y-74168095D01*
X226885238Y-74263333D01*
X227075714Y-74310952D01*
X227409047Y-74310952D01*
X227599523Y-74263333D01*
X227694761Y-74168095D01*
X227742380Y-74072857D01*
X227742380Y-73882380D01*
X226837619Y-74691904D02*
X226790000Y-74739523D01*
X226742380Y-74834761D01*
X226742380Y-75072857D01*
X226790000Y-75168095D01*
X226837619Y-75215714D01*
X226932857Y-75263333D01*
X227028095Y-75263333D01*
X227170952Y-75215714D01*
X227742380Y-74644285D01*
X227742380Y-75263333D01*
X226742380Y-75882380D02*
X226742380Y-75977619D01*
X226790000Y-76072857D01*
X226837619Y-76120476D01*
X226932857Y-76168095D01*
X227123333Y-76215714D01*
X227361428Y-76215714D01*
X227551904Y-76168095D01*
X227647142Y-76120476D01*
X227694761Y-76072857D01*
X227742380Y-75977619D01*
X227742380Y-75882380D01*
X227694761Y-75787142D01*
X227647142Y-75739523D01*
X227551904Y-75691904D01*
X227361428Y-75644285D01*
X227123333Y-75644285D01*
X226932857Y-75691904D01*
X226837619Y-75739523D01*
X226790000Y-75787142D01*
X226742380Y-75882380D01*
X183387619Y-75628571D02*
X183340000Y-75533333D01*
X183244761Y-75438095D01*
X183101904Y-75295238D01*
X183054285Y-75200000D01*
X183054285Y-75104761D01*
X183292380Y-75152380D02*
X183244761Y-75057142D01*
X183149523Y-74961904D01*
X182959047Y-74914285D01*
X182625714Y-74914285D01*
X182435238Y-74961904D01*
X182340000Y-75057142D01*
X182292380Y-75152380D01*
X182292380Y-75342857D01*
X182340000Y-75438095D01*
X182435238Y-75533333D01*
X182625714Y-75580952D01*
X182959047Y-75580952D01*
X183149523Y-75533333D01*
X183244761Y-75438095D01*
X183292380Y-75342857D01*
X183292380Y-75152380D01*
X182387619Y-75961904D02*
X182340000Y-76009523D01*
X182292380Y-76104761D01*
X182292380Y-76342857D01*
X182340000Y-76438095D01*
X182387619Y-76485714D01*
X182482857Y-76533333D01*
X182578095Y-76533333D01*
X182720952Y-76485714D01*
X183292380Y-75914285D01*
X183292380Y-76533333D01*
X183292380Y-77485714D02*
X183292380Y-76914285D01*
X183292380Y-77200000D02*
X182292380Y-77200000D01*
X182435238Y-77104761D01*
X182530476Y-77009523D01*
X182578095Y-76914285D01*
X181776666Y-94227380D02*
X182110000Y-93751190D01*
X182348095Y-94227380D02*
X182348095Y-93227380D01*
X181967142Y-93227380D01*
X181871904Y-93275000D01*
X181824285Y-93322619D01*
X181776666Y-93417857D01*
X181776666Y-93560714D01*
X181824285Y-93655952D01*
X181871904Y-93703571D01*
X181967142Y-93751190D01*
X182348095Y-93751190D01*
X180824285Y-94227380D02*
X181395714Y-94227380D01*
X181110000Y-94227380D02*
X181110000Y-93227380D01*
X181205238Y-93370238D01*
X181300476Y-93465476D01*
X181395714Y-93513095D01*
X188046666Y-64792380D02*
X188380000Y-64316190D01*
X188618095Y-64792380D02*
X188618095Y-63792380D01*
X188237142Y-63792380D01*
X188141904Y-63840000D01*
X188094285Y-63887619D01*
X188046666Y-63982857D01*
X188046666Y-64125714D01*
X188094285Y-64220952D01*
X188141904Y-64268571D01*
X188237142Y-64316190D01*
X188618095Y-64316190D01*
X187665714Y-63887619D02*
X187618095Y-63840000D01*
X187522857Y-63792380D01*
X187284761Y-63792380D01*
X187189523Y-63840000D01*
X187141904Y-63887619D01*
X187094285Y-63982857D01*
X187094285Y-64078095D01*
X187141904Y-64220952D01*
X187713333Y-64792380D01*
X187094285Y-64792380D01*
X188206666Y-57172380D02*
X188540000Y-56696190D01*
X188778095Y-57172380D02*
X188778095Y-56172380D01*
X188397142Y-56172380D01*
X188301904Y-56220000D01*
X188254285Y-56267619D01*
X188206666Y-56362857D01*
X188206666Y-56505714D01*
X188254285Y-56600952D01*
X188301904Y-56648571D01*
X188397142Y-56696190D01*
X188778095Y-56696190D01*
X187873333Y-56172380D02*
X187254285Y-56172380D01*
X187587619Y-56553333D01*
X187444761Y-56553333D01*
X187349523Y-56600952D01*
X187301904Y-56648571D01*
X187254285Y-56743809D01*
X187254285Y-56981904D01*
X187301904Y-57077142D01*
X187349523Y-57124761D01*
X187444761Y-57172380D01*
X187730476Y-57172380D01*
X187825714Y-57124761D01*
X187873333Y-57077142D01*
X182902380Y-62063333D02*
X182426190Y-61730000D01*
X182902380Y-61491904D02*
X181902380Y-61491904D01*
X181902380Y-61872857D01*
X181950000Y-61968095D01*
X181997619Y-62015714D01*
X182092857Y-62063333D01*
X182235714Y-62063333D01*
X182330952Y-62015714D01*
X182378571Y-61968095D01*
X182426190Y-61872857D01*
X182426190Y-61491904D01*
X182235714Y-62920476D02*
X182902380Y-62920476D01*
X181854761Y-62682380D02*
X182569047Y-62444285D01*
X182569047Y-63063333D01*
X150106666Y-87652380D02*
X150440000Y-87176190D01*
X150678095Y-87652380D02*
X150678095Y-86652380D01*
X150297142Y-86652380D01*
X150201904Y-86700000D01*
X150154285Y-86747619D01*
X150106666Y-86842857D01*
X150106666Y-86985714D01*
X150154285Y-87080952D01*
X150201904Y-87128571D01*
X150297142Y-87176190D01*
X150678095Y-87176190D01*
X149201904Y-86652380D02*
X149678095Y-86652380D01*
X149725714Y-87128571D01*
X149678095Y-87080952D01*
X149582857Y-87033333D01*
X149344761Y-87033333D01*
X149249523Y-87080952D01*
X149201904Y-87128571D01*
X149154285Y-87223809D01*
X149154285Y-87461904D01*
X149201904Y-87557142D01*
X149249523Y-87604761D01*
X149344761Y-87652380D01*
X149582857Y-87652380D01*
X149678095Y-87604761D01*
X149725714Y-87557142D01*
X209716666Y-74542380D02*
X210050000Y-74066190D01*
X210288095Y-74542380D02*
X210288095Y-73542380D01*
X209907142Y-73542380D01*
X209811904Y-73590000D01*
X209764285Y-73637619D01*
X209716666Y-73732857D01*
X209716666Y-73875714D01*
X209764285Y-73970952D01*
X209811904Y-74018571D01*
X209907142Y-74066190D01*
X210288095Y-74066190D01*
X208859523Y-73542380D02*
X209050000Y-73542380D01*
X209145238Y-73590000D01*
X209192857Y-73637619D01*
X209288095Y-73780476D01*
X209335714Y-73970952D01*
X209335714Y-74351904D01*
X209288095Y-74447142D01*
X209240476Y-74494761D01*
X209145238Y-74542380D01*
X208954761Y-74542380D01*
X208859523Y-74494761D01*
X208811904Y-74447142D01*
X208764285Y-74351904D01*
X208764285Y-74113809D01*
X208811904Y-74018571D01*
X208859523Y-73970952D01*
X208954761Y-73923333D01*
X209145238Y-73923333D01*
X209240476Y-73970952D01*
X209288095Y-74018571D01*
X209335714Y-74113809D01*
X110576666Y-84702380D02*
X110910000Y-84226190D01*
X111148095Y-84702380D02*
X111148095Y-83702380D01*
X110767142Y-83702380D01*
X110671904Y-83750000D01*
X110624285Y-83797619D01*
X110576666Y-83892857D01*
X110576666Y-84035714D01*
X110624285Y-84130952D01*
X110671904Y-84178571D01*
X110767142Y-84226190D01*
X111148095Y-84226190D01*
X110100476Y-84702380D02*
X109910000Y-84702380D01*
X109814761Y-84654761D01*
X109767142Y-84607142D01*
X109671904Y-84464285D01*
X109624285Y-84273809D01*
X109624285Y-83892857D01*
X109671904Y-83797619D01*
X109719523Y-83750000D01*
X109814761Y-83702380D01*
X110005238Y-83702380D01*
X110100476Y-83750000D01*
X110148095Y-83797619D01*
X110195714Y-83892857D01*
X110195714Y-84130952D01*
X110148095Y-84226190D01*
X110100476Y-84273809D01*
X110005238Y-84321428D01*
X109814761Y-84321428D01*
X109719523Y-84273809D01*
X109671904Y-84226190D01*
X109624285Y-84130952D01*
X125752380Y-67937142D02*
X125276190Y-67603809D01*
X125752380Y-67365714D02*
X124752380Y-67365714D01*
X124752380Y-67746666D01*
X124800000Y-67841904D01*
X124847619Y-67889523D01*
X124942857Y-67937142D01*
X125085714Y-67937142D01*
X125180952Y-67889523D01*
X125228571Y-67841904D01*
X125276190Y-67746666D01*
X125276190Y-67365714D01*
X125752380Y-68889523D02*
X125752380Y-68318095D01*
X125752380Y-68603809D02*
X124752380Y-68603809D01*
X124895238Y-68508571D01*
X124990476Y-68413333D01*
X125038095Y-68318095D01*
X124752380Y-69508571D02*
X124752380Y-69603809D01*
X124800000Y-69699047D01*
X124847619Y-69746666D01*
X124942857Y-69794285D01*
X125133333Y-69841904D01*
X125371428Y-69841904D01*
X125561904Y-69794285D01*
X125657142Y-69746666D01*
X125704761Y-69699047D01*
X125752380Y-69603809D01*
X125752380Y-69508571D01*
X125704761Y-69413333D01*
X125657142Y-69365714D01*
X125561904Y-69318095D01*
X125371428Y-69270476D01*
X125133333Y-69270476D01*
X124942857Y-69318095D01*
X124847619Y-69365714D01*
X124800000Y-69413333D01*
X124752380Y-69508571D01*
X105972857Y-81302380D02*
X106306190Y-80826190D01*
X106544285Y-81302380D02*
X106544285Y-80302380D01*
X106163333Y-80302380D01*
X106068095Y-80350000D01*
X106020476Y-80397619D01*
X105972857Y-80492857D01*
X105972857Y-80635714D01*
X106020476Y-80730952D01*
X106068095Y-80778571D01*
X106163333Y-80826190D01*
X106544285Y-80826190D01*
X105020476Y-81302380D02*
X105591904Y-81302380D01*
X105306190Y-81302380D02*
X105306190Y-80302380D01*
X105401428Y-80445238D01*
X105496666Y-80540476D01*
X105591904Y-80588095D01*
X104068095Y-81302380D02*
X104639523Y-81302380D01*
X104353809Y-81302380D02*
X104353809Y-80302380D01*
X104449047Y-80445238D01*
X104544285Y-80540476D01*
X104639523Y-80588095D01*
X181222380Y-69207142D02*
X180746190Y-68873809D01*
X181222380Y-68635714D02*
X180222380Y-68635714D01*
X180222380Y-69016666D01*
X180270000Y-69111904D01*
X180317619Y-69159523D01*
X180412857Y-69207142D01*
X180555714Y-69207142D01*
X180650952Y-69159523D01*
X180698571Y-69111904D01*
X180746190Y-69016666D01*
X180746190Y-68635714D01*
X181222380Y-70159523D02*
X181222380Y-69588095D01*
X181222380Y-69873809D02*
X180222380Y-69873809D01*
X180365238Y-69778571D01*
X180460476Y-69683333D01*
X180508095Y-69588095D01*
X180317619Y-70540476D02*
X180270000Y-70588095D01*
X180222380Y-70683333D01*
X180222380Y-70921428D01*
X180270000Y-71016666D01*
X180317619Y-71064285D01*
X180412857Y-71111904D01*
X180508095Y-71111904D01*
X180650952Y-71064285D01*
X181222380Y-70492857D01*
X181222380Y-71111904D01*
X101622380Y-78017142D02*
X101146190Y-77683809D01*
X101622380Y-77445714D02*
X100622380Y-77445714D01*
X100622380Y-77826666D01*
X100670000Y-77921904D01*
X100717619Y-77969523D01*
X100812857Y-78017142D01*
X100955714Y-78017142D01*
X101050952Y-77969523D01*
X101098571Y-77921904D01*
X101146190Y-77826666D01*
X101146190Y-77445714D01*
X101622380Y-78969523D02*
X101622380Y-78398095D01*
X101622380Y-78683809D02*
X100622380Y-78683809D01*
X100765238Y-78588571D01*
X100860476Y-78493333D01*
X100908095Y-78398095D01*
X100622380Y-79302857D02*
X100622380Y-79921904D01*
X101003333Y-79588571D01*
X101003333Y-79731428D01*
X101050952Y-79826666D01*
X101098571Y-79874285D01*
X101193809Y-79921904D01*
X101431904Y-79921904D01*
X101527142Y-79874285D01*
X101574761Y-79826666D01*
X101622380Y-79731428D01*
X101622380Y-79445714D01*
X101574761Y-79350476D01*
X101527142Y-79302857D01*
X144152857Y-84702380D02*
X144486190Y-84226190D01*
X144724285Y-84702380D02*
X144724285Y-83702380D01*
X144343333Y-83702380D01*
X144248095Y-83750000D01*
X144200476Y-83797619D01*
X144152857Y-83892857D01*
X144152857Y-84035714D01*
X144200476Y-84130952D01*
X144248095Y-84178571D01*
X144343333Y-84226190D01*
X144724285Y-84226190D01*
X143200476Y-84702380D02*
X143771904Y-84702380D01*
X143486190Y-84702380D02*
X143486190Y-83702380D01*
X143581428Y-83845238D01*
X143676666Y-83940476D01*
X143771904Y-83988095D01*
X142343333Y-84035714D02*
X142343333Y-84702380D01*
X142581428Y-83654761D02*
X142819523Y-84369047D01*
X142200476Y-84369047D01*
X113752857Y-60982380D02*
X114086190Y-60506190D01*
X114324285Y-60982380D02*
X114324285Y-59982380D01*
X113943333Y-59982380D01*
X113848095Y-60030000D01*
X113800476Y-60077619D01*
X113752857Y-60172857D01*
X113752857Y-60315714D01*
X113800476Y-60410952D01*
X113848095Y-60458571D01*
X113943333Y-60506190D01*
X114324285Y-60506190D01*
X112800476Y-60982380D02*
X113371904Y-60982380D01*
X113086190Y-60982380D02*
X113086190Y-59982380D01*
X113181428Y-60125238D01*
X113276666Y-60220476D01*
X113371904Y-60268095D01*
X111895714Y-59982380D02*
X112371904Y-59982380D01*
X112419523Y-60458571D01*
X112371904Y-60410952D01*
X112276666Y-60363333D01*
X112038571Y-60363333D01*
X111943333Y-60410952D01*
X111895714Y-60458571D01*
X111848095Y-60553809D01*
X111848095Y-60791904D01*
X111895714Y-60887142D01*
X111943333Y-60934761D01*
X112038571Y-60982380D01*
X112276666Y-60982380D01*
X112371904Y-60934761D01*
X112419523Y-60887142D01*
X139072857Y-81302380D02*
X139406190Y-80826190D01*
X139644285Y-81302380D02*
X139644285Y-80302380D01*
X139263333Y-80302380D01*
X139168095Y-80350000D01*
X139120476Y-80397619D01*
X139072857Y-80492857D01*
X139072857Y-80635714D01*
X139120476Y-80730952D01*
X139168095Y-80778571D01*
X139263333Y-80826190D01*
X139644285Y-80826190D01*
X138120476Y-81302380D02*
X138691904Y-81302380D01*
X138406190Y-81302380D02*
X138406190Y-80302380D01*
X138501428Y-80445238D01*
X138596666Y-80540476D01*
X138691904Y-80588095D01*
X137263333Y-80302380D02*
X137453809Y-80302380D01*
X137549047Y-80350000D01*
X137596666Y-80397619D01*
X137691904Y-80540476D01*
X137739523Y-80730952D01*
X137739523Y-81111904D01*
X137691904Y-81207142D01*
X137644285Y-81254761D01*
X137549047Y-81302380D01*
X137358571Y-81302380D01*
X137263333Y-81254761D01*
X137215714Y-81207142D01*
X137168095Y-81111904D01*
X137168095Y-80873809D01*
X137215714Y-80778571D01*
X137263333Y-80730952D01*
X137358571Y-80683333D01*
X137549047Y-80683333D01*
X137644285Y-80730952D01*
X137691904Y-80778571D01*
X137739523Y-80873809D01*
X119402380Y-74287142D02*
X118926190Y-73953809D01*
X119402380Y-73715714D02*
X118402380Y-73715714D01*
X118402380Y-74096666D01*
X118450000Y-74191904D01*
X118497619Y-74239523D01*
X118592857Y-74287142D01*
X118735714Y-74287142D01*
X118830952Y-74239523D01*
X118878571Y-74191904D01*
X118926190Y-74096666D01*
X118926190Y-73715714D01*
X119402380Y-75239523D02*
X119402380Y-74668095D01*
X119402380Y-74953809D02*
X118402380Y-74953809D01*
X118545238Y-74858571D01*
X118640476Y-74763333D01*
X118688095Y-74668095D01*
X118402380Y-75572857D02*
X118402380Y-76239523D01*
X119402380Y-75810952D01*
X134642380Y-78097142D02*
X134166190Y-77763809D01*
X134642380Y-77525714D02*
X133642380Y-77525714D01*
X133642380Y-77906666D01*
X133690000Y-78001904D01*
X133737619Y-78049523D01*
X133832857Y-78097142D01*
X133975714Y-78097142D01*
X134070952Y-78049523D01*
X134118571Y-78001904D01*
X134166190Y-77906666D01*
X134166190Y-77525714D01*
X134642380Y-79049523D02*
X134642380Y-78478095D01*
X134642380Y-78763809D02*
X133642380Y-78763809D01*
X133785238Y-78668571D01*
X133880476Y-78573333D01*
X133928095Y-78478095D01*
X134070952Y-79620952D02*
X134023333Y-79525714D01*
X133975714Y-79478095D01*
X133880476Y-79430476D01*
X133832857Y-79430476D01*
X133737619Y-79478095D01*
X133690000Y-79525714D01*
X133642380Y-79620952D01*
X133642380Y-79811428D01*
X133690000Y-79906666D01*
X133737619Y-79954285D01*
X133832857Y-80001904D01*
X133880476Y-80001904D01*
X133975714Y-79954285D01*
X134023333Y-79906666D01*
X134070952Y-79811428D01*
X134070952Y-79620952D01*
X134118571Y-79525714D01*
X134166190Y-79478095D01*
X134261428Y-79430476D01*
X134451904Y-79430476D01*
X134547142Y-79478095D01*
X134594761Y-79525714D01*
X134642380Y-79620952D01*
X134642380Y-79811428D01*
X134594761Y-79906666D01*
X134547142Y-79954285D01*
X134451904Y-80001904D01*
X134261428Y-80001904D01*
X134166190Y-79954285D01*
X134118571Y-79906666D01*
X134070952Y-79811428D01*
X212652857Y-82162380D02*
X212986190Y-81686190D01*
X213224285Y-82162380D02*
X213224285Y-81162380D01*
X212843333Y-81162380D01*
X212748095Y-81210000D01*
X212700476Y-81257619D01*
X212652857Y-81352857D01*
X212652857Y-81495714D01*
X212700476Y-81590952D01*
X212748095Y-81638571D01*
X212843333Y-81686190D01*
X213224285Y-81686190D01*
X211700476Y-82162380D02*
X212271904Y-82162380D01*
X211986190Y-82162380D02*
X211986190Y-81162380D01*
X212081428Y-81305238D01*
X212176666Y-81400476D01*
X212271904Y-81448095D01*
X211224285Y-82162380D02*
X211033809Y-82162380D01*
X210938571Y-82114761D01*
X210890952Y-82067142D01*
X210795714Y-81924285D01*
X210748095Y-81733809D01*
X210748095Y-81352857D01*
X210795714Y-81257619D01*
X210843333Y-81210000D01*
X210938571Y-81162380D01*
X211129047Y-81162380D01*
X211224285Y-81210000D01*
X211271904Y-81257619D01*
X211319523Y-81352857D01*
X211319523Y-81590952D01*
X211271904Y-81686190D01*
X211224285Y-81733809D01*
X211129047Y-81781428D01*
X210938571Y-81781428D01*
X210843333Y-81733809D01*
X210795714Y-81686190D01*
X210748095Y-81590952D01*
X196302857Y-84702380D02*
X196636190Y-84226190D01*
X196874285Y-84702380D02*
X196874285Y-83702380D01*
X196493333Y-83702380D01*
X196398095Y-83750000D01*
X196350476Y-83797619D01*
X196302857Y-83892857D01*
X196302857Y-84035714D01*
X196350476Y-84130952D01*
X196398095Y-84178571D01*
X196493333Y-84226190D01*
X196874285Y-84226190D01*
X195921904Y-83797619D02*
X195874285Y-83750000D01*
X195779047Y-83702380D01*
X195540952Y-83702380D01*
X195445714Y-83750000D01*
X195398095Y-83797619D01*
X195350476Y-83892857D01*
X195350476Y-83988095D01*
X195398095Y-84130952D01*
X195969523Y-84702380D01*
X195350476Y-84702380D01*
X194731428Y-83702380D02*
X194636190Y-83702380D01*
X194540952Y-83750000D01*
X194493333Y-83797619D01*
X194445714Y-83892857D01*
X194398095Y-84083333D01*
X194398095Y-84321428D01*
X194445714Y-84511904D01*
X194493333Y-84607142D01*
X194540952Y-84654761D01*
X194636190Y-84702380D01*
X194731428Y-84702380D01*
X194826666Y-84654761D01*
X194874285Y-84607142D01*
X194921904Y-84511904D01*
X194969523Y-84321428D01*
X194969523Y-84083333D01*
X194921904Y-83892857D01*
X194874285Y-83797619D01*
X194826666Y-83750000D01*
X194731428Y-83702380D01*
X124482380Y-86987142D02*
X124006190Y-86653809D01*
X124482380Y-86415714D02*
X123482380Y-86415714D01*
X123482380Y-86796666D01*
X123530000Y-86891904D01*
X123577619Y-86939523D01*
X123672857Y-86987142D01*
X123815714Y-86987142D01*
X123910952Y-86939523D01*
X123958571Y-86891904D01*
X124006190Y-86796666D01*
X124006190Y-86415714D01*
X123577619Y-87368095D02*
X123530000Y-87415714D01*
X123482380Y-87510952D01*
X123482380Y-87749047D01*
X123530000Y-87844285D01*
X123577619Y-87891904D01*
X123672857Y-87939523D01*
X123768095Y-87939523D01*
X123910952Y-87891904D01*
X124482380Y-87320476D01*
X124482380Y-87939523D01*
X124482380Y-88891904D02*
X124482380Y-88320476D01*
X124482380Y-88606190D02*
X123482380Y-88606190D01*
X123625238Y-88510952D01*
X123720476Y-88415714D01*
X123768095Y-88320476D01*
X191222857Y-81302380D02*
X191556190Y-80826190D01*
X191794285Y-81302380D02*
X191794285Y-80302380D01*
X191413333Y-80302380D01*
X191318095Y-80350000D01*
X191270476Y-80397619D01*
X191222857Y-80492857D01*
X191222857Y-80635714D01*
X191270476Y-80730952D01*
X191318095Y-80778571D01*
X191413333Y-80826190D01*
X191794285Y-80826190D01*
X190841904Y-80397619D02*
X190794285Y-80350000D01*
X190699047Y-80302380D01*
X190460952Y-80302380D01*
X190365714Y-80350000D01*
X190318095Y-80397619D01*
X190270476Y-80492857D01*
X190270476Y-80588095D01*
X190318095Y-80730952D01*
X190889523Y-81302380D01*
X190270476Y-81302380D01*
X189889523Y-80397619D02*
X189841904Y-80350000D01*
X189746666Y-80302380D01*
X189508571Y-80302380D01*
X189413333Y-80350000D01*
X189365714Y-80397619D01*
X189318095Y-80492857D01*
X189318095Y-80588095D01*
X189365714Y-80730952D01*
X189937142Y-81302380D01*
X189318095Y-81302380D01*
X125102857Y-83002380D02*
X125436190Y-82526190D01*
X125674285Y-83002380D02*
X125674285Y-82002380D01*
X125293333Y-82002380D01*
X125198095Y-82050000D01*
X125150476Y-82097619D01*
X125102857Y-82192857D01*
X125102857Y-82335714D01*
X125150476Y-82430952D01*
X125198095Y-82478571D01*
X125293333Y-82526190D01*
X125674285Y-82526190D01*
X124721904Y-82097619D02*
X124674285Y-82050000D01*
X124579047Y-82002380D01*
X124340952Y-82002380D01*
X124245714Y-82050000D01*
X124198095Y-82097619D01*
X124150476Y-82192857D01*
X124150476Y-82288095D01*
X124198095Y-82430952D01*
X124769523Y-83002380D01*
X124150476Y-83002380D01*
X123817142Y-82002380D02*
X123198095Y-82002380D01*
X123531428Y-82383333D01*
X123388571Y-82383333D01*
X123293333Y-82430952D01*
X123245714Y-82478571D01*
X123198095Y-82573809D01*
X123198095Y-82811904D01*
X123245714Y-82907142D01*
X123293333Y-82954761D01*
X123388571Y-83002380D01*
X123674285Y-83002380D01*
X123769523Y-82954761D01*
X123817142Y-82907142D01*
X186712380Y-78097142D02*
X186236190Y-77763809D01*
X186712380Y-77525714D02*
X185712380Y-77525714D01*
X185712380Y-77906666D01*
X185760000Y-78001904D01*
X185807619Y-78049523D01*
X185902857Y-78097142D01*
X186045714Y-78097142D01*
X186140952Y-78049523D01*
X186188571Y-78001904D01*
X186236190Y-77906666D01*
X186236190Y-77525714D01*
X185807619Y-78478095D02*
X185760000Y-78525714D01*
X185712380Y-78620952D01*
X185712380Y-78859047D01*
X185760000Y-78954285D01*
X185807619Y-79001904D01*
X185902857Y-79049523D01*
X185998095Y-79049523D01*
X186140952Y-79001904D01*
X186712380Y-78430476D01*
X186712380Y-79049523D01*
X186045714Y-79906666D02*
X186712380Y-79906666D01*
X185664761Y-79668571D02*
X186379047Y-79430476D01*
X186379047Y-80049523D01*
X229242857Y-84702380D02*
X229576190Y-84226190D01*
X229814285Y-84702380D02*
X229814285Y-83702380D01*
X229433333Y-83702380D01*
X229338095Y-83750000D01*
X229290476Y-83797619D01*
X229242857Y-83892857D01*
X229242857Y-84035714D01*
X229290476Y-84130952D01*
X229338095Y-84178571D01*
X229433333Y-84226190D01*
X229814285Y-84226190D01*
X228861904Y-83797619D02*
X228814285Y-83750000D01*
X228719047Y-83702380D01*
X228480952Y-83702380D01*
X228385714Y-83750000D01*
X228338095Y-83797619D01*
X228290476Y-83892857D01*
X228290476Y-83988095D01*
X228338095Y-84130952D01*
X228909523Y-84702380D01*
X228290476Y-84702380D01*
X227385714Y-83702380D02*
X227861904Y-83702380D01*
X227909523Y-84178571D01*
X227861904Y-84130952D01*
X227766666Y-84083333D01*
X227528571Y-84083333D01*
X227433333Y-84130952D01*
X227385714Y-84178571D01*
X227338095Y-84273809D01*
X227338095Y-84511904D01*
X227385714Y-84607142D01*
X227433333Y-84654761D01*
X227528571Y-84702380D01*
X227766666Y-84702380D01*
X227861904Y-84654761D01*
X227909523Y-84607142D01*
X203842857Y-92322380D02*
X204176190Y-91846190D01*
X204414285Y-92322380D02*
X204414285Y-91322380D01*
X204033333Y-91322380D01*
X203938095Y-91370000D01*
X203890476Y-91417619D01*
X203842857Y-91512857D01*
X203842857Y-91655714D01*
X203890476Y-91750952D01*
X203938095Y-91798571D01*
X204033333Y-91846190D01*
X204414285Y-91846190D01*
X203461904Y-91417619D02*
X203414285Y-91370000D01*
X203319047Y-91322380D01*
X203080952Y-91322380D01*
X202985714Y-91370000D01*
X202938095Y-91417619D01*
X202890476Y-91512857D01*
X202890476Y-91608095D01*
X202938095Y-91750952D01*
X203509523Y-92322380D01*
X202890476Y-92322380D01*
X202033333Y-91322380D02*
X202223809Y-91322380D01*
X202319047Y-91370000D01*
X202366666Y-91417619D01*
X202461904Y-91560476D01*
X202509523Y-91750952D01*
X202509523Y-92131904D01*
X202461904Y-92227142D01*
X202414285Y-92274761D01*
X202319047Y-92322380D01*
X202128571Y-92322380D01*
X202033333Y-92274761D01*
X201985714Y-92227142D01*
X201938095Y-92131904D01*
X201938095Y-91893809D01*
X201985714Y-91798571D01*
X202033333Y-91750952D01*
X202128571Y-91703333D01*
X202319047Y-91703333D01*
X202414285Y-91750952D01*
X202461904Y-91798571D01*
X202509523Y-91893809D01*
X224162857Y-81302380D02*
X224496190Y-80826190D01*
X224734285Y-81302380D02*
X224734285Y-80302380D01*
X224353333Y-80302380D01*
X224258095Y-80350000D01*
X224210476Y-80397619D01*
X224162857Y-80492857D01*
X224162857Y-80635714D01*
X224210476Y-80730952D01*
X224258095Y-80778571D01*
X224353333Y-80826190D01*
X224734285Y-80826190D01*
X223781904Y-80397619D02*
X223734285Y-80350000D01*
X223639047Y-80302380D01*
X223400952Y-80302380D01*
X223305714Y-80350000D01*
X223258095Y-80397619D01*
X223210476Y-80492857D01*
X223210476Y-80588095D01*
X223258095Y-80730952D01*
X223829523Y-81302380D01*
X223210476Y-81302380D01*
X222877142Y-80302380D02*
X222210476Y-80302380D01*
X222639047Y-81302380D01*
X120022857Y-63522380D02*
X120356190Y-63046190D01*
X120594285Y-63522380D02*
X120594285Y-62522380D01*
X120213333Y-62522380D01*
X120118095Y-62570000D01*
X120070476Y-62617619D01*
X120022857Y-62712857D01*
X120022857Y-62855714D01*
X120070476Y-62950952D01*
X120118095Y-62998571D01*
X120213333Y-63046190D01*
X120594285Y-63046190D01*
X119641904Y-62617619D02*
X119594285Y-62570000D01*
X119499047Y-62522380D01*
X119260952Y-62522380D01*
X119165714Y-62570000D01*
X119118095Y-62617619D01*
X119070476Y-62712857D01*
X119070476Y-62808095D01*
X119118095Y-62950952D01*
X119689523Y-63522380D01*
X119070476Y-63522380D01*
X118499047Y-62950952D02*
X118594285Y-62903333D01*
X118641904Y-62855714D01*
X118689523Y-62760476D01*
X118689523Y-62712857D01*
X118641904Y-62617619D01*
X118594285Y-62570000D01*
X118499047Y-62522380D01*
X118308571Y-62522380D01*
X118213333Y-62570000D01*
X118165714Y-62617619D01*
X118118095Y-62712857D01*
X118118095Y-62760476D01*
X118165714Y-62855714D01*
X118213333Y-62903333D01*
X118308571Y-62950952D01*
X118499047Y-62950952D01*
X118594285Y-62998571D01*
X118641904Y-63046190D01*
X118689523Y-63141428D01*
X118689523Y-63331904D01*
X118641904Y-63427142D01*
X118594285Y-63474761D01*
X118499047Y-63522380D01*
X118308571Y-63522380D01*
X118213333Y-63474761D01*
X118165714Y-63427142D01*
X118118095Y-63331904D01*
X118118095Y-63141428D01*
X118165714Y-63046190D01*
X118213333Y-62998571D01*
X118308571Y-62950952D01*
X219732380Y-78097142D02*
X219256190Y-77763809D01*
X219732380Y-77525714D02*
X218732380Y-77525714D01*
X218732380Y-77906666D01*
X218780000Y-78001904D01*
X218827619Y-78049523D01*
X218922857Y-78097142D01*
X219065714Y-78097142D01*
X219160952Y-78049523D01*
X219208571Y-78001904D01*
X219256190Y-77906666D01*
X219256190Y-77525714D01*
X218827619Y-78478095D02*
X218780000Y-78525714D01*
X218732380Y-78620952D01*
X218732380Y-78859047D01*
X218780000Y-78954285D01*
X218827619Y-79001904D01*
X218922857Y-79049523D01*
X219018095Y-79049523D01*
X219160952Y-79001904D01*
X219732380Y-78430476D01*
X219732380Y-79049523D01*
X219732380Y-79525714D02*
X219732380Y-79716190D01*
X219684761Y-79811428D01*
X219637142Y-79859047D01*
X219494285Y-79954285D01*
X219303809Y-80001904D01*
X218922857Y-80001904D01*
X218827619Y-79954285D01*
X218780000Y-79906666D01*
X218732380Y-79811428D01*
X218732380Y-79620952D01*
X218780000Y-79525714D01*
X218827619Y-79478095D01*
X218922857Y-79430476D01*
X219160952Y-79430476D01*
X219256190Y-79478095D01*
X219303809Y-79525714D01*
X219351428Y-79620952D01*
X219351428Y-79811428D01*
X219303809Y-79906666D01*
X219256190Y-79954285D01*
X219160952Y-80001904D01*
X180982857Y-83432380D02*
X181316190Y-82956190D01*
X181554285Y-83432380D02*
X181554285Y-82432380D01*
X181173333Y-82432380D01*
X181078095Y-82480000D01*
X181030476Y-82527619D01*
X180982857Y-82622857D01*
X180982857Y-82765714D01*
X181030476Y-82860952D01*
X181078095Y-82908571D01*
X181173333Y-82956190D01*
X181554285Y-82956190D01*
X180649523Y-82432380D02*
X180030476Y-82432380D01*
X180363809Y-82813333D01*
X180220952Y-82813333D01*
X180125714Y-82860952D01*
X180078095Y-82908571D01*
X180030476Y-83003809D01*
X180030476Y-83241904D01*
X180078095Y-83337142D01*
X180125714Y-83384761D01*
X180220952Y-83432380D01*
X180506666Y-83432380D01*
X180601904Y-83384761D01*
X180649523Y-83337142D01*
X179411428Y-82432380D02*
X179316190Y-82432380D01*
X179220952Y-82480000D01*
X179173333Y-82527619D01*
X179125714Y-82622857D01*
X179078095Y-82813333D01*
X179078095Y-83051428D01*
X179125714Y-83241904D01*
X179173333Y-83337142D01*
X179220952Y-83384761D01*
X179316190Y-83432380D01*
X179411428Y-83432380D01*
X179506666Y-83384761D01*
X179554285Y-83337142D01*
X179601904Y-83241904D01*
X179649523Y-83051428D01*
X179649523Y-82813333D01*
X179601904Y-82622857D01*
X179554285Y-82527619D01*
X179506666Y-82480000D01*
X179411428Y-82432380D01*
X129031904Y-59832380D02*
X129031904Y-60641904D01*
X128984285Y-60737142D01*
X128936666Y-60784761D01*
X128841428Y-60832380D01*
X128650952Y-60832380D01*
X128555714Y-60784761D01*
X128508095Y-60737142D01*
X128460476Y-60641904D01*
X128460476Y-59832380D01*
X127460476Y-60832380D02*
X128031904Y-60832380D01*
X127746190Y-60832380D02*
X127746190Y-59832380D01*
X127841428Y-59975238D01*
X127936666Y-60070476D01*
X128031904Y-60118095D01*
X195992380Y-61468095D02*
X196801904Y-61468095D01*
X196897142Y-61515714D01*
X196944761Y-61563333D01*
X196992380Y-61658571D01*
X196992380Y-61849047D01*
X196944761Y-61944285D01*
X196897142Y-61991904D01*
X196801904Y-62039523D01*
X195992380Y-62039523D01*
X195992380Y-62420476D02*
X195992380Y-63039523D01*
X196373333Y-62706190D01*
X196373333Y-62849047D01*
X196420952Y-62944285D01*
X196468571Y-62991904D01*
X196563809Y-63039523D01*
X196801904Y-63039523D01*
X196897142Y-62991904D01*
X196944761Y-62944285D01*
X196992380Y-62849047D01*
X196992380Y-62563333D01*
X196944761Y-62468095D01*
X196897142Y-62420476D01*
X178988904Y-93469380D02*
X178988904Y-94278904D01*
X178941285Y-94374142D01*
X178893666Y-94421761D01*
X178798428Y-94469380D01*
X178607952Y-94469380D01*
X178512714Y-94421761D01*
X178465095Y-94374142D01*
X178417476Y-94278904D01*
X178417476Y-93469380D01*
X177512714Y-93802714D02*
X177512714Y-94469380D01*
X177750809Y-93421761D02*
X177988904Y-94136047D01*
X177369857Y-94136047D01*
X173456571Y-77539571D02*
X173456571Y-77872904D01*
X173980380Y-78015761D02*
X173980380Y-77539571D01*
X172980380Y-77539571D01*
X172980380Y-78015761D01*
X173932761Y-78396714D02*
X173980380Y-78491952D01*
X173980380Y-78682428D01*
X173932761Y-78777666D01*
X173837523Y-78825285D01*
X173789904Y-78825285D01*
X173694666Y-78777666D01*
X173647047Y-78682428D01*
X173647047Y-78539571D01*
X173599428Y-78444333D01*
X173504190Y-78396714D01*
X173456571Y-78396714D01*
X173361333Y-78444333D01*
X173313714Y-78539571D01*
X173313714Y-78682428D01*
X173361333Y-78777666D01*
X173313714Y-79253857D02*
X174313714Y-79253857D01*
X173361333Y-79253857D02*
X173313714Y-79349095D01*
X173313714Y-79539571D01*
X173361333Y-79634809D01*
X173408952Y-79682428D01*
X173504190Y-79730047D01*
X173789904Y-79730047D01*
X173885142Y-79682428D01*
X173932761Y-79634809D01*
X173980380Y-79539571D01*
X173980380Y-79349095D01*
X173932761Y-79253857D01*
X173980380Y-80158619D02*
X173313714Y-80158619D01*
X173504190Y-80158619D02*
X173408952Y-80206238D01*
X173361333Y-80253857D01*
X173313714Y-80349095D01*
X173313714Y-80444333D01*
X173932761Y-81158619D02*
X173980380Y-81063380D01*
X173980380Y-80872904D01*
X173932761Y-80777666D01*
X173837523Y-80730047D01*
X173456571Y-80730047D01*
X173361333Y-80777666D01*
X173313714Y-80872904D01*
X173313714Y-81063380D01*
X173361333Y-81158619D01*
X173456571Y-81206238D01*
X173551809Y-81206238D01*
X173647047Y-80730047D01*
X173932761Y-81587190D02*
X173980380Y-81682428D01*
X173980380Y-81872904D01*
X173932761Y-81968142D01*
X173837523Y-82015761D01*
X173789904Y-82015761D01*
X173694666Y-81968142D01*
X173647047Y-81872904D01*
X173647047Y-81730047D01*
X173599428Y-81634809D01*
X173504190Y-81587190D01*
X173456571Y-81587190D01*
X173361333Y-81634809D01*
X173313714Y-81730047D01*
X173313714Y-81872904D01*
X173361333Y-81968142D01*
X173932761Y-82396714D02*
X173980380Y-82491952D01*
X173980380Y-82682428D01*
X173932761Y-82777666D01*
X173837523Y-82825285D01*
X173789904Y-82825285D01*
X173694666Y-82777666D01*
X173647047Y-82682428D01*
X173647047Y-82539571D01*
X173599428Y-82444333D01*
X173504190Y-82396714D01*
X173456571Y-82396714D01*
X173361333Y-82444333D01*
X173313714Y-82539571D01*
X173313714Y-82682428D01*
X173361333Y-82777666D01*
X173980380Y-83253857D02*
X173313714Y-83253857D01*
X172980380Y-83253857D02*
X173028000Y-83206238D01*
X173075619Y-83253857D01*
X173028000Y-83301476D01*
X172980380Y-83253857D01*
X173075619Y-83253857D01*
X173313714Y-83587190D02*
X173313714Y-83968142D01*
X173980380Y-83730047D02*
X173123238Y-83730047D01*
X173028000Y-83777666D01*
X172980380Y-83872904D01*
X172980380Y-83968142D01*
X173932761Y-85015761D02*
X173980380Y-85158619D01*
X173980380Y-85396714D01*
X173932761Y-85491952D01*
X173885142Y-85539571D01*
X173789904Y-85587190D01*
X173694666Y-85587190D01*
X173599428Y-85539571D01*
X173551809Y-85491952D01*
X173504190Y-85396714D01*
X173456571Y-85206238D01*
X173408952Y-85111000D01*
X173361333Y-85063380D01*
X173266095Y-85015761D01*
X173170857Y-85015761D01*
X173075619Y-85063380D01*
X173028000Y-85111000D01*
X172980380Y-85206238D01*
X172980380Y-85444333D01*
X173028000Y-85587190D01*
X173313714Y-85920523D02*
X173980380Y-86158619D01*
X173313714Y-86396714D02*
X173980380Y-86158619D01*
X174218476Y-86063380D01*
X174266095Y-86015761D01*
X174313714Y-85920523D01*
X173932761Y-86730047D02*
X173980380Y-86825285D01*
X173980380Y-87015761D01*
X173932761Y-87111000D01*
X173837523Y-87158619D01*
X173789904Y-87158619D01*
X173694666Y-87111000D01*
X173647047Y-87015761D01*
X173647047Y-86872904D01*
X173599428Y-86777666D01*
X173504190Y-86730047D01*
X173456571Y-86730047D01*
X173361333Y-86777666D01*
X173313714Y-86872904D01*
X173313714Y-87015761D01*
X173361333Y-87111000D01*
X173313714Y-87444333D02*
X173313714Y-87825285D01*
X172980380Y-87587190D02*
X173837523Y-87587190D01*
X173932761Y-87634809D01*
X173980380Y-87730047D01*
X173980380Y-87825285D01*
X173932761Y-88539571D02*
X173980380Y-88444333D01*
X173980380Y-88253857D01*
X173932761Y-88158619D01*
X173837523Y-88111000D01*
X173456571Y-88111000D01*
X173361333Y-88158619D01*
X173313714Y-88253857D01*
X173313714Y-88444333D01*
X173361333Y-88539571D01*
X173456571Y-88587190D01*
X173551809Y-88587190D01*
X173647047Y-88111000D01*
X173980380Y-89015761D02*
X173313714Y-89015761D01*
X173408952Y-89015761D02*
X173361333Y-89063380D01*
X173313714Y-89158619D01*
X173313714Y-89301476D01*
X173361333Y-89396714D01*
X173456571Y-89444333D01*
X173980380Y-89444333D01*
X173456571Y-89444333D02*
X173361333Y-89491952D01*
X173313714Y-89587190D01*
X173313714Y-89730047D01*
X173361333Y-89825285D01*
X173456571Y-89872904D01*
X173980380Y-89872904D01*
X173932761Y-90301476D02*
X173980380Y-90396714D01*
X173980380Y-90587190D01*
X173932761Y-90682428D01*
X173837523Y-90730047D01*
X173789904Y-90730047D01*
X173694666Y-90682428D01*
X173647047Y-90587190D01*
X173647047Y-90444333D01*
X173599428Y-90349095D01*
X173504190Y-90301476D01*
X173456571Y-90301476D01*
X173361333Y-90349095D01*
X173313714Y-90444333D01*
X173313714Y-90587190D01*
X173361333Y-90682428D01*
X171805571Y-79801619D02*
X171805571Y-80134952D01*
X172329380Y-80277809D02*
X172329380Y-79801619D01*
X171329380Y-79801619D01*
X171329380Y-80277809D01*
X172281761Y-80658761D02*
X172329380Y-80801619D01*
X172329380Y-81039714D01*
X172281761Y-81134952D01*
X172234142Y-81182571D01*
X172138904Y-81230190D01*
X172043666Y-81230190D01*
X171948428Y-81182571D01*
X171900809Y-81134952D01*
X171853190Y-81039714D01*
X171805571Y-80849238D01*
X171757952Y-80754000D01*
X171710333Y-80706380D01*
X171615095Y-80658761D01*
X171519857Y-80658761D01*
X171424619Y-80706380D01*
X171377000Y-80754000D01*
X171329380Y-80849238D01*
X171329380Y-81087333D01*
X171377000Y-81230190D01*
X172329380Y-81658761D02*
X171329380Y-81658761D01*
X171329380Y-82039714D01*
X171377000Y-82134952D01*
X171424619Y-82182571D01*
X171519857Y-82230190D01*
X171662714Y-82230190D01*
X171757952Y-82182571D01*
X171805571Y-82134952D01*
X171853190Y-82039714D01*
X171853190Y-81658761D01*
X171329380Y-82563523D02*
X171329380Y-83182571D01*
X171710333Y-82849238D01*
X171710333Y-82992095D01*
X171757952Y-83087333D01*
X171805571Y-83134952D01*
X171900809Y-83182571D01*
X172138904Y-83182571D01*
X172234142Y-83134952D01*
X172281761Y-83087333D01*
X172329380Y-82992095D01*
X172329380Y-82706380D01*
X172281761Y-82611142D01*
X172234142Y-82563523D01*
X171424619Y-83563523D02*
X171377000Y-83611142D01*
X171329380Y-83706380D01*
X171329380Y-83944476D01*
X171377000Y-84039714D01*
X171424619Y-84087333D01*
X171519857Y-84134952D01*
X171615095Y-84134952D01*
X171757952Y-84087333D01*
X172329380Y-83515904D01*
X172329380Y-84134952D01*
X171948428Y-84563523D02*
X171948428Y-85325428D01*
X171329380Y-85706380D02*
X172329380Y-85944476D01*
X171615095Y-86134952D01*
X172329380Y-86325428D01*
X171329380Y-86563523D01*
X172329380Y-87515904D02*
X171853190Y-87182571D01*
X172329380Y-86944476D02*
X171329380Y-86944476D01*
X171329380Y-87325428D01*
X171377000Y-87420666D01*
X171424619Y-87468285D01*
X171519857Y-87515904D01*
X171662714Y-87515904D01*
X171757952Y-87468285D01*
X171805571Y-87420666D01*
X171853190Y-87325428D01*
X171853190Y-86944476D01*
X171329380Y-88134952D02*
X171329380Y-88325428D01*
X171377000Y-88420666D01*
X171472238Y-88515904D01*
X171662714Y-88563523D01*
X171996047Y-88563523D01*
X172186523Y-88515904D01*
X172281761Y-88420666D01*
X172329380Y-88325428D01*
X172329380Y-88134952D01*
X172281761Y-88039714D01*
X172186523Y-87944476D01*
X171996047Y-87896857D01*
X171662714Y-87896857D01*
X171472238Y-87944476D01*
X171377000Y-88039714D01*
X171329380Y-88134952D01*
X171329380Y-89182571D02*
X171329380Y-89373047D01*
X171377000Y-89468285D01*
X171472238Y-89563523D01*
X171662714Y-89611142D01*
X171996047Y-89611142D01*
X172186523Y-89563523D01*
X172281761Y-89468285D01*
X172329380Y-89373047D01*
X172329380Y-89182571D01*
X172281761Y-89087333D01*
X172186523Y-88992095D01*
X171996047Y-88944476D01*
X171662714Y-88944476D01*
X171472238Y-88992095D01*
X171377000Y-89087333D01*
X171329380Y-89182571D01*
X172329380Y-90039714D02*
X171329380Y-90039714D01*
X172043666Y-90373047D01*
X171329380Y-90706380D01*
X172329380Y-90706380D01*
X204707619Y-62134761D02*
X204660000Y-62039523D01*
X204564761Y-61944285D01*
X204421904Y-61801428D01*
X204374285Y-61706190D01*
X204374285Y-61610952D01*
X204612380Y-61658571D02*
X204564761Y-61563333D01*
X204469523Y-61468095D01*
X204279047Y-61420476D01*
X203945714Y-61420476D01*
X203755238Y-61468095D01*
X203660000Y-61563333D01*
X203612380Y-61658571D01*
X203612380Y-61849047D01*
X203660000Y-61944285D01*
X203755238Y-62039523D01*
X203945714Y-62087142D01*
X204279047Y-62087142D01*
X204469523Y-62039523D01*
X204564761Y-61944285D01*
X204612380Y-61849047D01*
X204612380Y-61658571D01*
X203612380Y-62420476D02*
X203612380Y-63039523D01*
X203993333Y-62706190D01*
X203993333Y-62849047D01*
X204040952Y-62944285D01*
X204088571Y-62991904D01*
X204183809Y-63039523D01*
X204421904Y-63039523D01*
X204517142Y-62991904D01*
X204564761Y-62944285D01*
X204612380Y-62849047D01*
X204612380Y-62563333D01*
X204564761Y-62468095D01*
X204517142Y-62420476D01*
M02*
