M48
; DRILL file {KiCad 5.1.4-5.1.4} date Tue 03 Sep 2019 08:09:05 EET
; FORMAT={3:3/ absolute / metric / suppress leading zeros}
; #@! TF.CreationDate,2019-09-03T08:09:05+02:00
; #@! TF.GenerationSoftware,Kicad,Pcbnew,5.1.4-5.1.4
FMAT,2
METRIC,TZ
T1C0.400
T2C0.600
T3C0.762
T4C0.800
T5C0.900
T6C1.000
T7C1.100
T8C1.500
T9C1.520
T10C1.600
T11C3.200
%
G90
G05
T1
X107950Y-92710
X111760Y-93980
X114300Y-96520
X116840Y-60960
X119380Y-55880
X119380Y-81280
X120650Y-60960
X123190Y-67310
X124460Y-62230
X125730Y-64770
X127000Y-63500
X128244Y-62256
X128270Y-63500
X128270Y-82550
X142240Y-81280
X144780Y-63500
X144780Y-67310
X147320Y-90530
X151130Y-55880
X151130Y-57150
X151130Y-58420
X151130Y-59690
X151130Y-60960
X151130Y-62230
X152400Y-67310
X153670Y-55880
X153670Y-57150
X153670Y-58420
X154940Y-67310
X154940Y-82550
X154940Y-92710
X156210Y-58420
X156210Y-60960
X157480Y-59690
X157480Y-66871
X157480Y-95250
X160020Y-95250
X165100Y-63500
X165100Y-64770
X165100Y-66021
X166370Y-90530
X167640Y-62230
X167640Y-90530
X168910Y-62230
X168910Y-95250
X170180Y-62230
X170180Y-66871
X170180Y-76298
X171450Y-67310
X171450Y-77431
X172720Y-92710
X172720Y-95250
X173990Y-67310
X175850Y-61550
X177800Y-76298
X177800Y-77431
X185420Y-90530
X186690Y-60960
X189230Y-89690
X191895Y-66165
X196850Y-59690
X199390Y-67310
X200660Y-93980
X201930Y-57150
X201930Y-67310
X209550Y-66040
X210820Y-93980
X212090Y-66040
T2
X100330Y-78740
X129540Y-78332
X184150Y-78332
X214630Y-76200
T3
X217678Y-81724
X217742Y-75692
X219647Y-84899
X219774Y-72453
X222885Y-87058
X222949Y-70422
X226695Y-87630
X226759Y-69850
X230442Y-70929
X230442Y-86487
X233236Y-73406
X233299Y-83884
X234760Y-76899
X234760Y-80582
X184658Y-81724
X184721Y-75692
X186626Y-84899
X186754Y-72453
X189865Y-87058
X189929Y-70422
X193675Y-87630
X193739Y-69850
X197421Y-70929
X197421Y-86487
X200216Y-73406
X200279Y-83884
X201740Y-76899
X201740Y-80582
X99568Y-81724
X99631Y-75692
X101537Y-84899
X101664Y-72453
X104775Y-87058
X104839Y-70422
X108585Y-87630
X108648Y-69850
X112331Y-70929
X112331Y-86487
X115126Y-73406
X115189Y-83884
X116649Y-76899
X116649Y-80582
X132588Y-81724
X132651Y-75692
X134557Y-84899
X134684Y-72453
X137795Y-87058
X137859Y-70422
X141605Y-87630
X141669Y-69850
X145351Y-70929
X145351Y-86487
X148146Y-73406
X148209Y-83884
X149670Y-76899
X149670Y-80582
T4
X220980Y-66040
X231140Y-66040
X208280Y-53340
X218440Y-53340
T5
X194310Y-54610
X204470Y-54610
X229870Y-58500
X229870Y-63500
X234870Y-61000
X180340Y-95250
X182880Y-95250
T6
X220980Y-58420
X225980Y-58420
X137160Y-95250
X139700Y-95250
X142240Y-95250
X144780Y-95250
X147320Y-95250
X149860Y-95250
T7
X189230Y-91440
X196850Y-91440
X137160Y-91440
X144780Y-91440
X222250Y-91440
X229870Y-91440
X237490Y-66040
X237490Y-73660
X104140Y-91440
X111760Y-91440
T8
X158580Y-63500
X179070Y-63500
T9
X105410Y-55880
X110490Y-55880
T10
X207010Y-62230
X213010Y-62230
T11
X238760Y-93980
X238760Y-54610
X95250Y-54610
X95250Y-93980
T0
M30
